<svg width="453" height="828" viewBox="0 0 453 828" fill="none" xmlns="http://www.w3.org/2000/svg">
<path fill-rule="evenodd" clip-rule="evenodd" d="M350.872 310.709C341.729 329.155 330.424 345.464 317.037 361.751C317.976 323.266 318.784 284.573 320.168 245.734C328.646 260.742 337.678 274.324 349.737 289.223C359.191 298.39 354.783 302.195 350.872 310.709ZM380.848 760.967C381.908 759.607 381.281 757.877 379.815 756.995C382.936 750.889 373.532 746.177 368.904 741.581C358.384 731.225 341.812 716.381 340.337 703.305C335.32 673.64 332.453 643.87 324.419 614.552C319.646 595.93 306.395 580.989 300.474 562.696C290.177 514.354 303.479 465.874 301.179 417.05C330.198 414.467 326.44 417.751 323.332 395.848C325.274 394.625 327.166 393.329 328.935 392.024C333.568 394.267 339.037 399.766 344.138 399.475C345.753 399.132 346.917 397.295 348.025 395.718C356.217 383.996 363.833 372.537 371.289 360.723C412.519 301.731 403.194 288.373 364.735 231.824C348.538 209.984 328.644 178.204 297.788 175.998C294.064 176.001 290.136 175.821 286.928 173.695C286.905 170.31 284.999 169.218 280.163 168.599C277.44 168.345 275.303 166.905 272.645 167.493C270.748 161.747 271.128 157.126 269.07 151.441C262.021 141.739 239.151 146.58 230.777 149.622C220.37 152.906 230.27 167.602 223.478 174.313C221.997 175.063 220.456 175.423 218.483 175.422C210.068 173.722 205.968 182.89 201.991 188.937C190.605 190.211 182.073 191.745 176.835 195.469C172.031 198.759 168.5 204.052 163.805 214.998C153.974 234.519 147.528 253.906 144.68 272.608C142.202 285.281 135.318 296.249 129.791 307.76C116.224 337.731 110.367 357.583 113.615 383.962C117.059 383.402 120.532 382.266 124.158 381.842L125.623 384.989C125.716 384.925 125.755 384.855 125.761 384.835C130.016 411.239 118.344 465.004 156.422 457.93C159.781 486.987 170.497 512.818 183.391 537.115C188.605 546.256 193.849 555.917 193.762 566.651L191.799 566.69C191.465 566.697 191.358 566.759 191.357 566.759C190.983 566.842 191.417 569.487 191.836 570.983C197.996 590.73 203.323 610.475 208.105 630.46C209.115 633.153 209.551 640.403 211.887 641.633C211.786 642.622 215.008 644.562 215.257 644.5C214.695 648.313 216.729 650.02 216.661 653.891C216.672 653.799 213.803 653.935 213.928 653.856C212.216 653.856 210.275 657.156 210.252 659.391C210.095 662.085 212.604 664.617 213.481 667.26C214.841 673.059 214.628 678.937 215.233 684.773C209.524 685.948 210.805 691.456 215.812 691.727C215.812 691.727 216.724 699.422 216.544 703.257C213.109 703.631 211.583 706.409 210.449 708.563C206.224 708.606 202.27 710.351 198.347 712.168C189.203 716.234 180.222 720.493 172.077 724.807C164.891 729.143 149.226 733.91 157.359 743.029C157.236 743.264 159.104 747.496 161.625 747.11C174.062 748.207 221.353 738.887 232.294 736.82C236.007 736.019 252.257 734.099 245.509 729.122C248.023 722.749 248.134 710.656 240.549 709.18C239.812 703.191 234.257 701.089 228.717 703.305C228.752 698.998 228.456 695.269 228.406 690.959C231.073 690.641 234.026 689.743 234.796 687.908C235.527 686.894 235.244 683.445 232.498 683.42C232.418 683.415 230.434 683.501 230.354 683.5C230.672 676.528 230.002 670.611 231.152 663.627C231.769 661.308 233.787 660.93 235.108 659.737C236.348 656.268 232.535 653.466 229.272 652.882C228.442 649.355 230.196 645.619 229.272 642.158C231.4 642.094 233.061 641.995 234.442 640.823C235.042 640.29 236.024 640.452 236.788 640.404C237.527 633.123 242.533 626.904 243.644 619.899C245.208 611.608 242.26 602.956 241.204 594.506C240.348 587.478 241.712 580.286 242.393 573.384C270.428 613.983 308.284 653.107 315.062 702.528C315.784 706.332 316.221 710.587 312.355 714.313L312.189 714.356C311.206 716.147 310.589 719.56 309.884 721.407C306.233 724.024 309.584 729.05 312.221 731.315C313.021 732.143 313.703 733.102 314.434 733.969C328.21 748.899 329.769 765.769 356.215 764.631C362.716 764.262 377.93 764.449 380.848 760.967Z" fill="white"/>
<path fill-rule="evenodd" clip-rule="evenodd" d="M270.159 154.087C267.927 152.703 271.104 164.634 271.111 165.773L271.167 166.023C271.723 168.453 272.703 171.277 274.957 172.831C273.918 180.555 272.623 188.257 271.03 195.899C256.821 197.581 242.518 200.01 228.066 198.785C220.524 198.844 215.513 194.203 212.429 188.421L212.337 188.246L212.972 186.178C222.637 180.795 229.963 169.885 225.605 159.589C225.322 158.92 224.144 159.189 224.401 159.889C226.23 164.536 225.462 169.775 222.865 174.043C221.242 174.828 219.514 174.773 217.775 174.725C209.387 173.612 204.569 182.254 200.959 187.642L197.799 188.067C185.708 189.697 174.046 191.626 168.076 202.871L167.53 203.923C159.083 220.244 151.19 237.032 146.59 254.617C144.299 263.873 143.47 273.411 140.109 282.441C133.131 299.204 123.297 314.956 117.964 332.309C114.656 338.442 105.362 385.908 114.531 386.065C117.834 385.167 121.198 384.443 124.599 383.924C124.074 384.287 123.883 384.903 123.983 385.535C125.17 393.09 125.259 400.743 125.253 408.36C124.767 426.652 124.833 465.305 154.846 460.389C157.307 482.755 165.708 504.391 175.047 525.094C180.596 538.44 191.357 550.614 191.898 565.274C188.18 565.325 189.622 569.617 190.079 571.687C191.33 576.754 192.956 581.743 194.603 586.713C200.404 604.54 203.869 622.965 208.836 640.997C209.105 641.865 209.557 642.456 210.134 642.854C210.232 644.73 213.355 645.807 215.121 645.183C214.873 647.453 214.941 649.751 214.907 652.028L214.899 652.455L214.358 652.449C212.003 651.899 209.623 655.36 208.959 657.137C206.723 662.108 211.907 665.753 212.292 670.489C212.644 674.984 213.111 679.44 213.324 683.949C206.861 686.239 209.719 693.909 216.053 693.829C215.757 696.628 215.717 699.444 215.587 702.248C212.833 702.902 210.768 705.009 209.413 707.209C203.847 707.555 198.766 710.542 193.806 712.656C186.138 716.093 178.594 719.761 171.194 723.656C163.988 728.009 147.954 732.952 154.963 743.021C153.199 744.401 154.431 747.105 156.039 748.234L156.095 748.272C157.692 749.407 159.805 749.407 161.769 749.223C184.58 749.741 208.616 743.31 231.299 739.111L233.012 738.834C237.977 738.027 243.06 737.124 247.472 734.925C249.338 733.546 249.795 730.18 247.885 728.821C249.843 722.392 248.077 711.103 240.33 708.615C239.41 703.848 235.161 700.428 229.757 701.883C229.731 698.829 229.457 695.812 229.396 692.757C232.076 692.3 234.547 691.356 235.839 689.046C237.26 686.744 235.721 682.886 232.492 683.011C232.382 678.255 232.679 673.579 232.722 668.831L232.727 668.545C232.744 667.007 232.675 665.311 233.393 663.897C234.131 662.44 236.095 662.297 236.966 660.916C238.876 657.197 235.053 652.829 231.11 651.828C230.616 649.338 230.872 646.701 230.376 644.187C232.475 644.076 234.264 643.633 235.784 642.552C236.834 642.404 238.693 642.829 238.813 641.46C239.24 635.864 242.349 630.883 244.307 625.665C248.351 615.514 244.681 604.914 243.275 594.648C242.613 589.412 243.311 584.154 243.902 578.906C270.583 616.838 304.809 653.515 312.716 699.276C313.155 704.427 315.472 708.665 311.401 713.109C310.035 713.468 308.869 719.291 308.343 720.758C304.173 724.26 307.806 730.51 311.435 733.219C313.172 735.942 315.495 738.326 317.669 740.765L318.37 741.831C322.976 748.821 327.89 755.832 334.136 761.691C344.633 768.758 362.247 766.747 374.611 765.474L375.71 765.312C378.285 764.922 381.136 764.351 382.618 762.271C383.905 760.467 383.733 758.127 382.132 756.774C383.72 752.62 380.102 748.541 376.699 745.99C363.508 735.376 352.138 722.892 343.284 709.056C339.89 686.682 336.404 664.311 332.63 641.988C329.585 623.515 324.945 605.023 315.149 588.449L312.747 584.304C308.685 577.284 304.793 570.28 302.479 562.542C297.085 544.31 298.377 525.217 299.124 506.552C300.085 477.414 302.373 448.27 302.074 419.11C308.117 418.534 324.498 418.889 327.078 413.253C327.923 407.881 325.942 402.416 325.494 397.052C326.77 396.24 328.015 395.389 329.227 394.511C331.474 396.033 333.793 397.47 336.175 398.806C341.873 402.529 346.28 403.125 349.807 397.005C360.011 382.362 369.856 367.509 379.146 352.372C387.762 337.853 398.441 323.357 400.628 306.641C403.807 276.552 364.92 228.395 345.45 203.948C333.485 190.808 318.007 176.813 298.237 175.784L297.637 175.757C294.985 175.636 291.132 175.9 288.922 174.272C288.505 168.84 282.365 168.868 277.8 167.97C276.855 167.315 275.42 167.16 274.211 167.213C272.573 162.941 272.201 158.219 270.159 154.087ZM326.529 712.93C331.536 710.565 337.512 710.374 342.779 712.248C349.311 723.237 357.678 733.268 367.178 742.278C370.649 746.675 383.679 752.472 377.179 758.406L376.3 758.552C366.323 760.201 356.193 761.499 346.027 760.756C339.385 759.087 334.023 754.618 329.799 749.792C324.555 743.618 320.221 736.826 315.424 730.361C311.116 723.734 308.845 723.645 312.223 715.773C312.229 715.927 312.27 716.083 312.356 716.241C313.549 718.425 317.21 718.224 319.276 717.401C321.969 716.327 323.928 714.176 326.529 712.93ZM373.842 760.444L373.691 760.507L373.537 760.57L373.313 760.573L373.842 760.444ZM183.963 720.88C191.392 717.864 205.003 709.074 212.592 710.41C218.196 711.966 223.362 714.75 229.336 715.153L229.592 715.161C233.856 715.327 241.434 716.618 243.037 712.065C245.158 715.744 245.856 720.301 245.824 724.464C245.912 728.012 244.123 730.818 239.969 731.106L236.123 731.984C211.754 737.538 187.157 742.84 162.044 744.483C155.452 740.746 155.29 735.833 162.28 732.419C169.338 728.323 176.602 724.507 183.963 720.88ZM327.491 635.17C331.855 659.962 334.786 684.896 339.012 709.7C324.261 706.353 319.928 718.361 314.436 715.011C318.278 710.421 317.817 706.963 316.68 701.621C314.425 683.63 307.045 666.515 297.894 650.54C296.852 648.716 295.781 646.902 294.697 645.093C306.463 646.067 319.128 643.021 327.491 635.17ZM236.613 705.868C237.624 707.292 238.024 709.007 238.347 710.653C238.513 711.504 238.421 712.757 238.754 713.71C232.424 713.884 226.059 712.545 220.355 710.08L220.633 710.063C225.282 709.803 234.888 710.396 236.613 705.868ZM240.549 709.537C241.165 709.934 241.697 710.394 242.158 710.905C242.313 711.698 241.861 712.56 241.129 713.054C240.982 711.893 240.804 710.69 240.549 709.537ZM228.184 692.936C228.164 696.526 227.924 700.062 227.968 703.647C227.974 704.89 227.567 706.46 228.406 707.516L227.074 707.644C223.735 707.96 220.329 708.22 216.993 707.876C216.885 703.209 216.882 698.519 216.543 693.857C220.659 693.833 224.133 693.204 228.184 692.936ZM215.435 707.227C215.44 707.37 215.443 707.521 215.438 707.662C214.958 707.581 214.481 707.483 214.009 707.37C214.397 707.334 214.792 707.394 215.174 707.274C215.262 707.263 215.352 707.252 215.435 707.227ZM229.806 706.668C230.228 707.102 231.05 707.18 231.57 706.892C231.675 706.91 231.781 706.923 231.892 706.928C231.923 706.93 231.956 706.928 231.986 706.928L231.625 707.01C230.871 707.179 230.288 707.288 229.515 707.388C229.651 707.164 229.742 706.923 229.806 706.668ZM212.489 706.651C212.586 706.814 212.719 706.95 212.883 707.063L212.51 706.95C212.448 706.93 212.387 706.911 212.325 706.89C212.375 706.807 212.431 706.729 212.489 706.651ZM234.308 705.664C234.238 705.812 234.082 706.04 233.903 706.16C234.062 706.011 234.2 705.846 234.308 705.664ZM215.54 703.355C215.537 703.44 215.534 703.526 215.529 703.614C215.478 703.565 215.417 703.521 215.346 703.491C215.412 703.446 215.479 703.4 215.54 703.355ZM232.511 683.798C235.614 684.711 234.527 688.247 232.178 689.406C229.624 690.936 225.766 690.697 222.834 690.926C219.832 690.984 216.358 692.091 213.657 690.5C212.247 689.638 212.235 687.68 213.726 686.925C213.754 686.986 213.784 687.043 213.815 687.102C213.795 687.24 213.809 687.396 213.876 687.579C215.578 690.359 226.26 688.753 228.969 687.375L229.178 687.293C231.013 686.585 232.733 686.257 232.511 683.798ZM228.717 642.901C228.045 645.635 228.265 648.481 227.841 651.224C227.574 652.019 227.916 652.548 228.462 652.819C224.937 653.776 221.384 654.251 217.712 653.506C218.11 650.301 217.105 646.728 216.597 643.505L228.717 642.901ZM215.257 643.573C215.198 643.983 215.206 644.429 215.155 644.854C215.147 644.844 215.14 644.835 215.131 644.826L215.116 644.814C214.672 644.464 214.27 644.016 213.845 643.629C214.311 643.62 214.788 643.596 215.257 643.573ZM233.637 560.61C235.883 565.47 238.418 570.198 241.261 574.802L241.145 575.889C240.394 583.018 239.828 590.154 241.102 597.27L241.222 597.879C243.186 607.849 245.635 618.23 240.87 627.879L240.653 628.385C238.951 632.347 237.159 636.277 236.699 640.531C228.955 641.035 221.186 641.737 213.431 641.983C211.426 642.293 210.451 641.252 210.272 639.543C204.223 616.525 198.916 593.35 192.361 570.447L192.293 570.33C191.582 569.095 191.049 567.676 192.369 567.244C194.86 566.849 197.303 569.268 199.669 569.886C212.366 574.432 221.983 562.357 233.637 560.61ZM233.937 569.984C226.226 580.344 230.422 596.081 231.307 608.385C231.963 612.916 231.193 617.557 231.715 622.064C231.788 622.416 232.401 622.482 232.57 622.165C234.388 618.013 233.641 613.239 233.482 608.871C232.348 595.952 229.136 582.614 233.937 569.984ZM211.395 428.102C211.424 427.932 211.686 427.993 211.702 428.139C211.785 459.213 213.935 490.197 217.335 521.115C217.383 521.785 216.175 521.944 216.033 521.275C213.587 509.792 212.599 498.091 211.771 486.429L211.678 485.109C210.601 469.446 210.259 453.74 210.722 438.051C210.823 434.754 210.837 431.365 211.395 428.102ZM141.472 382.842C141.772 383.165 142.099 383.358 142.432 383.456C142.429 390.717 144.043 397.863 148.467 404.153C150.409 406.484 151.453 409.176 152.383 411.947C152.116 412.699 152.452 413.564 153.077 413.997C157.165 425.281 157.586 437.364 156.078 449.085C151.48 442.961 149.656 435.65 148.37 428.444C148.301 428.082 147.641 428.087 147.569 428.444C146.043 436.152 148.628 443.845 151.967 450.887C153.819 452.309 153.422 455.533 153.637 457.549C119.746 462.028 131.533 402.932 127.191 384.732C127.111 384.229 126.642 383.867 126.11 383.711C131.194 383.009 136.343 382.955 141.472 382.842ZM278.596 169.268L279.183 169.402C285.368 170.805 287.006 170.837 287.4 177.44C288.939 186.756 294.621 194.891 297.176 203.9C298.197 207.083 297.119 212.947 292.273 212.09C290.703 211.652 289.479 213.572 290.667 214.593C294.175 217.605 297.581 220.712 301.006 223.801C287.252 265.969 269.382 307.041 247.619 346.336C246.756 347.893 249.344 349.267 250.201 347.704C271.84 308.284 289.835 267.224 303.802 225.047L304.224 223.768C304.841 222.217 296.954 216.652 295.518 214.835C309.9 208.545 289.871 186.517 289.285 175.93C293.451 177.41 298.068 176.903 302.415 177.548C310.77 178.874 318.101 183.264 324.619 187.991C351.09 209.224 368.009 238.62 384.932 266.326C396.458 284.409 402.013 306.504 390.448 325.735C377.029 350.39 361.458 374.155 345.003 397.226C343.193 399.359 340.415 396.908 338.51 396.008C327.564 390.035 318.072 381.906 310.772 372.401C329.913 350.607 347.72 326.793 357.643 300.274C358.435 293.822 348.479 286.349 344.845 280.742C336.822 270.689 329.326 260.295 322.169 249.723C322.393 248.678 321.918 247.533 320.699 247.562L319.99 246.489C314.524 238.237 313.916 237.917 319.342 248.012C316.589 285.253 317.047 323.212 315.856 360.69C312.636 364.559 309.321 368.365 305.929 372.112C294.925 365.227 281.982 360.734 268.689 359.343L268.007 359.282C262.38 358.759 252.865 357.669 252.117 364.398C253.12 372.636 271.64 367.959 277.628 372.633C267.861 376.205 256.667 377.216 247.699 382.606C244.822 384.126 239.184 388.989 244.693 390.846C247.097 391.034 249.579 390.18 251.981 389.998C249.278 390.823 246.792 392.227 245.208 394.423C244.069 395.93 243.236 399.055 245.96 399.702C252.17 399.855 258.353 398.027 264.468 397.105L263.924 397.306C259.465 398.967 252.537 401.94 258.541 406.334C264.553 409.157 271.829 404.352 277.817 403.067C293.951 399.666 305.87 409 322.407 398.889C322.871 403.342 324.355 407.924 323.9 412.383C319.922 415.759 307.543 415.647 302.005 416.093L302.011 415.922C302.092 413.184 301.289 413.464 301.137 416.126C287.118 416.516 273.066 416.279 259.076 415.366C253.072 414.964 247.078 414.421 241.108 413.716L239.989 413.582C236.921 413.21 233.715 412.963 230.703 412.299C227.621 411.924 227.617 408.936 227.944 406.744C232.174 325.655 268.441 249.408 278.596 169.268ZM221.592 175.966C220.88 176.927 220.089 177.845 219.235 178.713C217.92 176.866 214.72 175.819 213.809 178.577C212.784 181.412 211.318 184.324 211.275 187.328C190.313 249.43 189.78 315.468 190.188 379.886C189.56 390.105 193.048 400.105 192.725 410.269C181.243 411.768 169.594 411.897 158.064 410.787C157.723 409.974 157.338 409.172 156.901 408.387C139.643 389.268 148.792 365.303 157.105 344.592C162.13 344.781 167.185 344.497 172.215 344.55C170.662 348.921 170.26 353.545 169.433 358.065C168.87 361.286 168.151 364.482 167.326 367.656L167.104 368.502C166.792 369.671 166.379 370.934 166.831 372.094C167.275 373.239 168.806 373.702 169.822 372.811C171.651 370.915 171.455 368.09 172.046 365.736L172.155 364.997C173.162 358.25 174.489 351.239 172.648 344.55C174.456 344.193 179.395 345.492 179.654 343.284C179.578 339.639 182.489 331.736 179.249 329.333C177.321 327.997 174.007 328.42 171.746 328.337C169.133 328.241 166.524 328.153 163.914 328.168C184.888 282.108 179.055 267.925 176.927 222.083L176.863 220.684C176.869 220.385 176.333 220.309 176.275 220.614C173.068 239.391 177.343 258.404 175.318 277.238C171.721 313.03 146.767 343.757 142.594 379.375C133.594 378.43 124.493 379.589 115.771 381.645C115.588 380.198 115.446 378.746 115.346 377.292C113.691 350.71 123.955 324.885 135.934 301.043C143.112 288.381 147.549 274.878 149.405 260.751C153.012 242.355 161.103 225.023 169.168 207.937C174.264 195.156 185.287 192.143 198.955 190.659C194.345 197.603 189.763 204.562 185.189 211.526C184.168 213.631 187.296 215.138 188.662 216.432C171.872 224.758 181.676 250.446 181.329 264.849C182.575 278.075 183.045 291.387 185.242 304.523C185.403 305.432 186.939 305.167 186.954 304.312C186.751 284.626 184.168 265.017 183.035 245.365L182.897 243.933C182.013 234.627 181.15 221.204 193.46 218.649C195.121 218.405 195.249 216.16 193.915 215.486C192.14 214.588 190.584 213.489 189.192 212.185C196.216 201.932 202.342 191.138 209.733 181.111L210.041 180.754C214.975 175.078 214.632 177.13 221.592 175.966ZM255.52 363.899C256.885 360.265 270.056 362.635 273.579 363.027C286.553 365.256 299.611 370.474 309.493 378.51C310.103 379.005 310.824 378.998 311.393 378.729C315.823 383.867 320.93 388.523 326.537 392.617C325.51 393.349 324.456 394.063 323.372 394.743C322.853 394.793 322.385 395.037 322.174 395.477C306.751 405.63 295.402 397.71 279.381 399.541C273.398 400.635 267.889 404.094 261.725 404.238C257.201 403.303 261.184 401.585 263.297 400.919C269.357 398.29 275.567 395.958 281.758 393.596C283.68 392.863 283.02 390.224 280.873 390.685C277.115 391.49 273.346 392.257 269.574 393.007C262.32 394.356 254.893 396.079 247.563 396.731C249.191 392.618 266.484 388.168 271.507 386.536C273.407 385.717 278.821 385.878 278.202 383.199C277.702 380.714 271.938 383.561 270.02 383.766C262.178 385.569 254.175 386.671 246.185 387.769C254.768 379.946 268.07 379.267 279.031 375.606L279.394 375.53C281.315 375.116 283.882 374.35 282.416 372.402L282.368 372.339C276.73 364.789 254.581 368.617 255.52 363.899ZM271.738 321.888C267.743 318.899 265.597 325.032 265.852 327.877C265.663 330.236 265.461 332.599 265.292 334.961C265.54 336.811 263.373 343.543 266.271 343.604C278.936 343.024 291.58 343.163 304.249 342.476C304.266 344.796 304.391 347.116 304.26 349.443C304.329 352.348 303.217 355.256 303.866 358.126C304.263 359.449 306.24 359.625 307.012 358.498C309.327 353.551 307.734 347.17 306.096 342.165C315.666 339.955 311.054 332.953 311.053 326.835C311.066 326.674 310.889 326.591 310.744 326.621C308.372 329.632 311.462 333.649 310.107 336.924C308.706 340.503 302.761 340.174 299.402 340.233L299.301 340.235C288.84 340.399 278.387 340.791 267.927 340.975C268.373 337.774 268.495 334.496 268.764 331.296C269.103 328.999 268.613 326.273 269.902 324.213C275.718 325.928 281.774 326.615 287.888 326.506C295.177 326.684 302.842 327.282 309.965 326.49C299.749 325.058 288.464 325.266 278.053 323.448C275.984 322.961 273.872 321.976 271.738 321.888ZM322.021 252.8C328.324 263.725 335.568 274.126 343.286 284.25C344.939 286.413 346.636 288.547 348.361 290.665L348.68 291.036C352.127 295.014 355.706 298.314 352.45 303.592C343.914 322.424 332.492 340.111 319.256 356.525L319.483 347.095C320.233 315.661 320.944 284.225 322.021 252.8ZM163.68 328.722C179.5 331.739 179.802 326.091 177.159 342.064C170.813 342.103 164.47 341.973 158.122 342.066C159.936 337.606 161.816 333.165 163.68 328.722ZM211.18 192.12C214.748 197.693 220.676 201.272 227.815 201.324C240.34 201.977 253.033 201.228 265.238 198.531C267.033 198.121 269.177 197.769 270.83 196.878C261.418 243.229 246.183 288.386 235.467 334.471L235.115 335.99L234.824 335.938C227.529 334.762 219.593 335.251 212.092 334.833C206.074 334.754 199.996 335.339 194.02 334.526L194.206 328.798C195.713 282.948 197.816 236.549 211.18 192.12ZM216.413 178.871C217.075 178.863 218.089 179.221 218.764 179.178C217.389 180.515 215.866 181.72 214.263 182.769C214.997 181.521 215.569 180.024 216.413 178.871Z" fill="black"/>
<path fill-rule="evenodd" clip-rule="evenodd" d="M194.854 116.537C194.965 110.901 195.087 105.152 196.01 99.5702C196.913 94.1137 199.398 89.1814 203.667 85.219C212.734 76.8024 225.878 74.7466 238.113 72.8627L259.03 69.6415C265.412 68.659 272.22 67.0885 278.668 68.4819C281.845 69.1685 284.543 70.7636 287.009 72.6508C289.386 74.4699 291.941 76.4232 293.552 78.8705C295.165 81.3213 295.72 84.1862 296.245 86.958C296.836 90.0831 297.296 93.2326 297.622 96.3896C298.277 102.715 298.366 109.087 297.891 115.426C297.661 118.5 297.296 121.565 296.829 124.617C296.597 126.13 296.335 127.64 296.04 129.144C295.952 129.588 295.886 130.079 295.797 130.575C296.457 132.277 296.832 134.04 296.801 135.796C296.712 140.966 291.901 144.222 287.051 145.97C284.238 146.983 281.298 147.672 278.535 148.804C275.628 149.995 273.649 151.925 271.662 154.127C267.871 158.328 263.594 162.102 258.709 165.252C248.353 171.93 235.237 175.088 222.671 172.691C219.657 172.115 216.615 171.222 213.905 169.877C211.044 168.456 208.892 166.397 207.086 163.963C203.731 159.444 201.325 154.355 199.505 149.177C197.649 143.895 196.331 138.604 195.613 133.096C194.897 127.606 194.746 122.061 194.854 116.537Z" fill="white"/>
<path fill-rule="evenodd" clip-rule="evenodd" d="M261.605 50.008C252.949 48.9279 241.001 52.4384 236.69 59.5168C216.109 55.1154 190.151 54.9712 173.187 69.6233C155.487 87.0041 177.72 109.921 192.462 115.087C191.389 119.819 193.062 150.133 204.904 163.654C214.302 175.111 236.187 180.398 246.314 166.714L246.393 166.601C247.478 165.021 246.543 165.071 245.429 166.247C235.513 174.158 222.03 174.293 211.64 165.944C192.168 150.685 194.175 113.27 203.441 91.6254C229.826 88.9967 258.075 96.2509 276.299 114.267L275.067 120.997C274.857 122.144 274.618 123.289 274.436 124.44C274.32 125.177 274.307 125.91 274.87 126.507C276.729 128.477 279.862 125.516 282.44 124.339C283.201 124.242 283.964 124.204 284.711 124.252C297.097 125.699 294.657 147.495 281.044 143.675C279.9 143.028 278.917 143.226 278.474 144.163C275.229 146.86 273.089 151.668 267.699 156.299C265.796 158.037 264.065 159.49 261.926 160.884C260.669 162.037 256.877 163.212 258.079 165.185C260.353 169.674 273.757 155.573 276.127 151.674C283.553 154.333 291.782 153.43 299.477 152.78C340.073 150.865 334.654 112.047 301.378 87.5384C295.114 83.3554 288.204 79.943 281.02 77.3171C280.039 76.9586 280.468 75.4978 281.462 75.8614C286.215 77.5992 290.849 79.6675 295.266 82.0615L295.273 80.6302C295.28 78.2196 295.238 75.71 294.776 73.5075C294.546 71.9813 294.157 70.3512 293.56 69.1249C292.821 65.3653 281.252 52.4605 261.605 50.008ZM285.253 129.256C284.627 128.716 283.456 129.36 282.898 129.344C281.471 129.521 280.116 130.068 279.058 130.743C278.36 131.097 277.871 131.43 277.462 131.737L277.451 131.734C277.454 131.734 277.458 131.737 277.461 131.738L277.423 131.761C276.828 132.145 274.649 134.306 276.025 133.725C276.128 133.604 276.233 133.487 276.339 133.374C276.35 133.389 276.366 133.404 276.385 133.419L276.308 133.523C275.138 135.12 277.158 133.438 277.469 132.991C277.483 133.002 277.5 133.009 277.516 133.017L277.112 133.464C277.055 133.527 277.011 133.578 276.974 133.621L276.888 133.696C275.535 134.902 275.493 135.988 277.065 134.204C277.003 134.288 276.953 134.377 276.946 134.456L276.853 134.564C275.619 136.006 276.623 135.494 277.236 134.878L277.288 134.825L277.277 134.839C276.707 135.637 277.838 135.077 278.039 134.651L278.047 134.631C278.265 134.47 278.399 134.289 278.445 134.243L278.454 134.236C279.515 133.249 281.053 132.415 282.36 132.036C282.549 132.003 282.741 131.977 282.934 131.958C283.72 131.799 284.514 131.69 285.317 131.631C285.415 131.621 285.515 131.555 285.589 131.471C286.803 131.434 286.428 130.983 285.925 130.899L285.916 130.897L286.016 130.89C286.795 130.821 287.327 130.567 286.539 130.412L286.439 130.394C286.451 130.376 286.462 130.359 286.473 130.342C287.147 130.274 286.707 129.68 286.333 129.823C286.49 129.356 285.77 129.59 285.68 129.52C285.612 129.451 285.527 129.39 285.478 129.387C285.261 129.248 285.366 129.261 285.253 129.256ZM281.126 121.692L281.284 121.776C281.412 121.843 281.543 121.888 281.675 121.915C281.489 121.987 281.305 122.064 281.122 122.147C281.125 122.046 281.127 121.945 281.127 121.843L281.126 121.692Z" fill="black"/>
<path fill-rule="evenodd" clip-rule="evenodd" d="M216.304 148.936L216.112 148.895C214.58 148.568 213.105 148.122 211.678 148.983C210.318 149.804 210.129 151.321 211.189 152.428C212.278 153.566 213.725 153.503 215.251 153.518L215.347 153.519C216.615 153.535 217.903 153.518 219.166 153.416C220.343 153.321 221.528 153.169 222.692 152.97L223.38 152.847C224.083 152.718 224.776 152.55 225.138 151.933C225.77 150.857 221.074 150.013 220.503 149.865C219.119 149.506 217.708 149.224 216.304 148.936ZM213.699 135.961C214.447 136.665 215.436 137.146 216.546 137.445C219.336 138.198 222.896 137.797 225.174 137.03C225.647 136.871 226.088 136.547 226.342 136.142C226.574 135.771 226.653 135.336 226.476 134.892C226.426 134.765 226.365 134.642 226.303 134.52C226.136 134.188 225.796 133.929 225.395 133.782C224.98 133.628 224.507 133.597 224.128 133.705C224.078 133.72 224.025 133.735 223.972 133.75C222.528 134.163 220.16 134.846 218.199 134.714C217.022 134.634 215.986 134.257 215.451 133.28C215.169 132.765 215.247 132.255 215.497 131.789C215.874 131.085 216.63 130.473 217.267 130.052C218.165 129.457 219.123 129.219 220.113 128.969C220.486 128.874 220.864 128.779 221.246 128.664C221.371 128.626 221.481 128.552 221.564 128.456C221.645 128.361 221.699 128.245 221.716 128.129C221.733 128.008 221.712 127.888 221.65 127.785C221.593 127.689 221.502 127.604 221.365 127.549C219.428 126.761 216.922 127.282 215.03 128.521C214.085 129.14 213.296 129.935 212.81 130.824C212.359 131.649 212.168 132.554 212.344 133.477C212.542 134.51 213.024 135.326 213.699 135.961ZM245.455 118.389C244.911 118.172 244.464 119.19 244.351 119.468L244.12 120.044C243.742 120.974 243.308 121.918 242.513 122.608C241.848 123.185 240.781 123.675 240.009 122.999C239.277 122.358 239.634 121.636 239.526 120.85C239.332 119.428 237.194 118.007 235.909 119.491C233.005 122.844 237.497 127.506 241.635 126.688C243.739 126.272 245.433 124.742 246.129 122.922L246.165 122.825C246.581 121.672 247.003 119.009 245.455 118.389ZM207.99 120.724L208.01 120.682C209.393 117.829 204.46 116.602 204.041 119.164L204.015 119.337C203.608 122.181 204.465 126.006 208.305 126.289C212.616 126.608 214.411 122.245 214.026 119.043C213.957 118.47 213.191 118.391 212.954 118.912L212.903 119.026C212.207 120.635 211.546 123.729 209.094 123.726C207.456 123.723 207.534 121.717 207.99 120.724ZM204.862 112.464C202.384 112.385 202.388 115.902 204.862 115.955C213.128 116.132 221.4 116.366 229.668 116.406L231.171 116.415C238.937 116.462 246.73 116.558 254.474 115.967C255.135 115.916 255.012 115.075 254.46 115.109C246.342 114.06 238.124 113.754 229.944 113.356C221.591 112.949 213.222 112.734 204.862 112.464Z" fill="black"/>
</svg>
