<svg width="417" height="832" viewBox="0 0 417 832" fill="none" xmlns="http://www.w3.org/2000/svg">
<path fill-rule="evenodd" clip-rule="evenodd" d="M250.36 552.351C249.562 559.354 246.99 573.841 245.727 580.957C245.36 583.025 245.103 584.475 245.029 584.95C237.883 622.316 234.958 660.286 233.601 698.249C233.203 703.189 233.4 708.116 234.259 712.997C234.303 713.248 234.349 713.499 234.397 713.749C234.637 713.699 234.88 713.655 235.128 713.615C245.178 711.981 251.948 719.322 258.49 726.244C261.048 728.95 263.57 731.615 266.217 733.742C272.57 739.413 279.447 744.458 286.653 748.988C289.598 750.723 292.94 752.773 295.196 755.492C296.732 757.343 297.757 759.511 297.73 762.116L297.721 763.009L298.604 762.873C298.868 762.832 299.089 762.847 299.267 762.932C299.456 763.022 299.587 763.187 299.692 763.379C300.161 764.241 300.16 765.61 300.186 766.647C300.193 766.913 300.199 767.16 300.21 767.379C300.29 770.491 298.883 772.545 296.765 773.949C293.468 776.136 288.549 776.825 284.562 777.407C283.824 777.515 283.116 777.618 282.45 777.725C257.923 780.354 233.091 773.713 210.396 764.718C210.333 764.692 210.269 764.667 210.205 764.642C210.143 764.653 210.081 764.662 210.018 764.671C208.21 764.909 206.654 763.945 205.424 762.551C203.724 760.623 202.617 757.838 202.352 755.676C202.121 754.629 202.267 753.655 202.395 752.691C202.566 751.408 202.711 750.14 202.311 748.897C199.181 741.777 198.769 734.034 199.217 726.449C199.094 717.058 201.251 714.409 203.006 712.309C204.479 710.546 205.669 709.115 205.286 705.112C205.238 704.521 205.051 700.717 205.132 698.828L205.72 698.745C204.789 685.315 201.411 672.015 198.032 658.725C192.529 637.08 187.002 615.46 192.304 593.335C193.978 586.515 197.288 580.476 200.609 574.401C202.717 570.546 204.831 566.676 206.554 562.592C206.585 562.519 206.616 562.445 206.646 562.372C206.63 562.299 206.614 562.227 206.6 562.153C206.274 560.461 206.677 558.738 207.061 557.002C207.411 555.417 207.755 553.821 207.673 552.226C207.643 549.228 207.053 546.359 206.433 543.453C206.401 543.305 206.369 543.156 206.337 543.007C206.192 542.967 206.047 542.925 205.902 542.883C203.064 542.061 200.29 541.054 197.626 539.736L196.912 539.383L196.594 540.113C196.494 540.345 196.346 540.522 196.168 540.644C195.972 540.778 195.743 540.845 195.513 540.854C195.263 540.864 195.01 540.806 194.792 540.685C194.619 540.589 194.468 540.453 194.36 540.277C194.056 539.033 194.395 537.719 194.699 536.419C194.899 535.56 195.095 534.705 195.161 533.871C195.259 533.394 195.344 532.837 195.433 532.243C195.683 530.584 195.943 528.581 196.84 527.39C197.094 527.052 197.406 526.787 197.807 526.657C198.191 526.531 198.647 526.529 199.189 526.654C199.508 526.728 199.78 526.828 200.01 526.954C200.045 526.634 200.08 526.315 200.114 525.995C201.546 512.455 201.819 498.8 201.024 485.209C200.962 484.155 200.894 483.102 200.819 482.05C200.393 483.018 199.975 483.988 199.568 484.959C197.126 490.779 194.984 496.817 192.842 502.852C189.845 511.299 186.851 519.742 183.03 527.569C182.968 527.696 182.906 527.823 182.844 527.95C182.918 528.031 182.978 528.126 183.028 528.23C183.119 528.419 183.166 528.615 183.129 528.812C183.093 529.002 182.981 529.182 182.804 529.357C181.386 530.733 180.647 532.573 179.932 534.418C179.896 534.511 179.86 534.604 179.824 534.697C179.286 536.394 178.405 537.933 177.209 539.112C176.146 540.16 174.833 540.922 173.304 541.211C173.143 541.241 172.983 541.265 172.824 541.284C172.784 541.452 172.745 541.618 172.706 541.782C172.516 542.592 172.318 543.446 172.111 544.338C169.689 554.772 166.068 570.421 159.541 581.939C155.364 589.31 150.001 595.011 142.91 596.349C142.394 596.446 141.878 596.519 141.362 596.567C141.793 596.785 142.153 597.079 142.403 597.489C143.219 598.827 142.405 600.648 141.789 602.318C141.425 603.305 141.079 604.263 140.942 605.111C140.28 607.005 139.726 608.95 139.171 610.897C138.155 614.468 137.141 618.047 135.419 621.316C135.354 621.439 135.289 621.561 135.223 621.682C135.292 621.764 135.345 621.851 135.386 621.952C135.455 622.124 135.468 622.289 135.448 622.493C135.431 622.676 135.395 622.824 135.316 622.964C135.483 623.031 135.647 623.113 135.807 623.211C136.574 623.682 137.044 624.398 137.277 625.215C137.559 626.206 137.503 627.341 137.201 628.415C136.886 629.536 136.3 630.596 135.515 631.366C134.856 632.012 134.053 632.453 133.149 632.506C133.088 632.51 133.027 632.512 132.967 632.512C132.918 632.545 132.869 632.575 132.82 632.603C132.42 632.829 131.863 632.951 131.342 632.96L131.163 634.452C131.276 634.578 131.293 634.643 131.285 634.711C130.518 643.94 128.324 652.94 126.143 661.904C125.738 663.568 125.333 665.231 124.938 666.894C124.168 669.543 123.6 672.273 123.031 675.004C122.098 679.488 121.17 683.979 119.308 688.113C119.262 688.215 119.215 688.317 119.168 688.419C119.214 688.517 119.258 688.616 119.299 688.716C120.229 690.945 120.039 693.522 119.577 695.844C118.826 696.703 117.414 696.63 116.242 696.665C115.791 696.679 115.359 696.693 114.969 696.733C114.721 696.759 114.457 696.799 114.184 696.845C114.224 697.095 114.261 697.344 114.297 697.594C114.866 701.595 114.844 705.669 114.825 709.728C114.815 712.022 114.804 714.311 114.897 716.58C114.908 716.848 114.92 717.116 114.934 717.384C115.179 717.347 115.432 717.321 115.696 717.307C118.262 717.167 120.045 718.222 121.343 719.876C123.348 722.432 124.253 726.323 125.049 729.638C125.265 730.542 125.473 731.405 125.688 732.193C127.323 737.672 129.415 742.95 131.508 748.226C134.297 755.258 137.088 762.285 138.754 769.747L139.008 770.885L139.945 770.191C140.029 770.129 140.128 770.085 140.238 770.081C140.346 770.077 140.46 770.112 140.577 770.181C143.926 772.192 143.963 776.341 144.104 779.835C144.116 780.143 144.128 780.448 144.142 780.747C144.11 781.484 144.164 782.279 144.22 783.087C144.357 785.021 144.64 787.136 143.003 788.374C131.441 796.255 115.807 796.029 102.444 793.959C97.1162 792.987 91.9153 791.364 86.9772 789.142C85.1106 788.509 83.7145 787.839 82.8605 786.739C82.1353 785.805 81.8354 784.564 81.953 782.84C81.624 779.706 81.9062 776.723 82.1836 773.736C82.424 771.148 82.6622 768.556 82.5341 765.948C82.926 755.928 85.218 746.024 87.471 736.269C87.5613 735.878 87.6516 735.487 87.7416 735.097C87.8734 734.684 88.0062 734.262 88.1411 733.833C89.8766 728.317 91.9245 721.559 96.9088 718.47C97.0469 718.439 97.2697 718.432 97.5166 718.412C98.1743 718.357 98.9514 718.268 99.4135 718.045C99.426 718.039 99.4383 718.032 99.4504 718.026L99.1666 718.986L100.65 718.35C100.993 718.203 101.351 718.093 101.719 718.024C101.84 718.001 101.962 717.983 102.085 717.969C102.144 717.849 102.203 717.729 102.262 717.609C104.28 713.435 105.217 708.887 106.147 704.339C106.721 701.528 107.294 698.718 108.136 696.003C108.209 695.77 108.283 695.537 108.359 695.304C108.131 695.234 107.906 695.156 107.685 695.071C105.339 694.167 103.211 692.361 102.552 689.92C102.711 689.23 103.04 688.476 103.537 687.911C103.905 687.493 104.372 687.175 104.95 687.138L105.991 687.073L105.607 686.102C105.226 685.14 105.171 684.044 105.288 683.012C107.251 670.908 109.867 658.907 112.684 646.97C113.757 642.531 114.904 638.107 116.199 633.727C116.389 633.2 116.539 632.605 116.692 631.994C117.009 630.727 117.298 629.341 118.22 628.544C118.439 628.354 118.686 628.205 118.952 628.086C118.715 627.872 118.483 627.653 118.257 627.43C116.288 625.488 114.618 623.13 114.57 620.48C114.478 619.366 115.005 618.219 115.819 617.506C116.086 617.272 116.387 617.084 116.711 616.969L117.959 617.737C118.258 617.921 118.544 618.13 118.829 618.339C119.07 618.515 119.311 618.691 119.558 618.854L122.541 620.826L120.615 617.813C119.1 615.442 119.852 612.556 120.461 609.904C120.626 609.187 120.787 608.485 120.91 607.807C121.07 607.085 121.228 606.359 121.387 605.632C122.344 601.235 123.309 596.78 124.991 592.639C125.059 592.471 125.129 592.303 125.199 592.134C125.061 592.018 124.923 591.901 124.786 591.781C118.237 586.095 115.675 579.077 115.344 571.551C114.866 560.703 118.974 548.813 122.613 538.227C123.538 535.536 124.434 532.928 125.221 530.442C125.275 530.271 125.329 530.1 125.383 529.928C125.235 529.813 125.088 529.703 124.941 529.597C124.05 528.956 122.98 528.361 121.878 527.75C119.14 526.234 116.031 524.657 115.618 521.576C115.664 519.92 116.312 518.323 116.932 516.751C117.184 516.113 117.434 515.479 117.648 514.848C117.814 514.106 118.319 513.143 118.963 512.707C119.103 512.612 119.249 512.536 119.406 512.553C119.546 512.569 119.675 512.662 119.807 512.802L120.698 513.744L121.082 512.506C121.279 511.873 121.476 511.239 121.674 510.605C125.444 498.507 129.268 486.187 128.924 473.409C128.919 473.222 128.913 473.035 128.906 472.85C128.72 472.789 128.531 472.736 128.338 472.691C127.026 472.384 125.692 472.505 124.376 472.637C122.723 472.803 121.079 473.031 119.595 471.921C106.078 461.579 107.549 435.217 108.706 419.829C108.721 419.629 108.737 419.427 108.752 419.225C108.565 419.173 108.377 419.116 108.191 419.053C107.563 418.843 106.963 418.586 106.417 418.261L105.969 417.994L105.559 418.318C105.361 418.326 105.245 418.208 105.116 418.071C104.588 417.511 104.066 416.491 103.547 415.24C101.707 410.814 100.061 403.568 99.5751 401.434C99.5629 401.38 99.5514 401.33 99.5389 401.274C89.7026 356.685 93.4658 310.707 97.1523 265.528C97.4157 262.3 97.6788 259.076 97.9368 255.857C98.7305 249.906 99.0345 243.814 99.3383 237.709C99.9599 225.217 100.568 212.667 105.495 201.188C108.786 192.803 118.062 190.856 125.94 189.093C126.156 189.044 126.371 188.996 126.586 188.948C130.688 187.726 134.814 186.782 138.933 185.839C145.247 184.394 151.547 182.949 157.561 180.579C157.887 180.45 158.211 180.319 158.534 180.186C158.304 179.949 158.091 179.698 157.899 179.431C156.843 177.96 156.43 176.035 156.538 174.125C156.651 172.144 157.327 170.168 158.485 168.704C158.94 168.37 159.474 168.335 160.015 168.423C161.077 168.597 162.185 169.226 163.085 169.723C163.175 169.772 163.262 169.82 163.347 169.867L164.023 170.237L164.382 169.555C165.799 166.86 166.782 163.89 167.743 160.975C168.299 159.292 168.847 157.628 169.474 156.051C171.394 151.992 174.687 150.045 178.487 149.296C184.214 148.167 191.063 149.692 196.361 151.014C196.551 151.063 196.742 151.111 196.934 151.16C199.607 151.838 202.473 152.544 204.695 154.213C208.394 157.168 209.18 161.763 210.016 166.271C210.439 168.553 210.863 170.824 211.609 172.896C211.693 173.128 211.781 173.36 211.874 173.591C212.084 173.496 212.291 173.424 212.491 173.378C215.421 172.708 221.851 176.517 224.068 178.546C224.647 178.93 224.912 179.313 225.05 179.743C225.279 180.461 225.206 181.282 225.153 182.093C225.129 182.461 225.105 182.827 225.1 183.185C225.098 183.394 225.102 183.607 225.109 183.821C225.311 183.861 225.513 183.9 225.714 183.939C227.019 184.193 228.351 184.44 229.699 184.692C239.348 186.488 249.87 188.42 257.377 193.733C262.625 197.448 266.367 202.84 267.242 211.036C270.016 222.882 271.487 234.849 272.851 246.823C273.034 248.405 273.215 249.988 273.396 251.572C275.592 270.779 277.806 290.096 283.773 308.56C284.359 309.995 284.927 311.377 285.496 312.759C294.418 334.456 303.473 356.446 305.615 380.038C306.777 391.313 306.6 402.703 304.672 413.879C304.559 414.482 304.082 414.904 303.538 415.126C302.941 415.369 302.224 415.391 301.688 415.053L298.833 413.251L300.644 416.101C304.454 422.1 301.263 432.649 299.103 440.097C298.783 441.201 298.482 442.239 298.223 443.19C296.565 448.691 293.882 454.68 289.668 457.858C288.073 459.06 286.256 459.85 284.186 460.026C282.286 460.187 280.18 459.832 277.845 458.834C277.553 458.709 277.27 458.58 276.996 458.449C276.932 458.759 276.868 459.069 276.805 459.379C272.221 481.663 267.105 503.751 261.032 525.685L260.186 528.741L262.323 526.399C262.664 526.025 263.055 525.805 263.463 525.724C263.92 525.633 264.391 525.714 264.824 525.909C265.318 526.133 265.765 526.506 266.097 526.975C266.401 527.403 266.611 527.912 266.67 528.464C266.495 531.461 265.528 534.341 264.572 537.216C264.062 538.75 263.553 540.282 263.156 541.827C262.712 543.421 261.776 544.4 260.575 545.018C258.738 545.963 256.335 546.116 254.069 546.283C252.887 546.37 251.737 546.456 250.705 546.632C250.55 546.659 250.394 546.688 250.236 546.72C250.191 546.869 250.147 547.019 250.104 547.17C249.799 548.226 249.532 549.293 249.264 550.361C249.051 551.215 248.837 552.069 248.603 552.917L250.06 553.339C250.166 552.987 250.266 552.657 250.36 552.351ZM137.243 419.634C137.293 413.235 139.574 407.2 141.834 401.175C142.776 398.664 143.716 396.155 144.502 393.624C144.549 393.474 144.595 393.323 144.641 393.173C144.522 393.054 144.403 392.94 144.282 392.832C143.705 392.32 142.993 391.853 142.267 391.381C141.253 390.723 140.196 390.061 139.567 389.167C139.18 388.617 138.979 387.97 139.113 387.088C139.479 380.493 139.928 373.899 140.467 367.316C140.593 365.911 140.72 364.505 140.848 363.099C143.095 338.307 145.359 313.232 140.908 288.562C140.712 287.439 140.483 286.327 140.255 285.215C140.101 284.468 139.947 283.721 139.804 282.971C139.783 282.86 139.76 282.714 139.733 282.544C139.605 281.734 139.391 280.445 138.958 279.505C138.567 278.655 137.994 278.112 137.309 277.992C137.067 277.95 136.82 277.962 136.574 278.025C136.529 278.201 136.485 278.381 136.442 278.561C128.988 309.265 130.858 340.588 132.736 371.85C133.601 386.233 134.464 400.603 134.411 414.893C134.41 415.033 134.41 415.174 134.409 415.314C134.498 415.342 134.583 415.388 134.66 415.458C134.853 415.633 134.907 415.878 134.868 416.106C134.821 416.384 134.647 416.648 134.381 416.788C134.287 416.838 134.188 416.869 134.088 416.884C134.058 417.018 134.028 417.152 133.996 417.286C133.853 417.897 133.692 418.503 133.512 419.106C133.468 419.254 133.423 419.401 133.377 419.549C133.49 419.657 133.603 419.764 133.717 419.872C134.478 420.596 135.245 421.314 136.019 422.025L137.4 423.293L137.288 421.422C137.253 420.823 137.238 420.227 137.243 419.634Z" fill="white"/>
<path fill-rule="evenodd" clip-rule="evenodd" d="M299.911 423.318C297.081 432.837 294.483 446.933 287.276 453.941C284.74 455.99 281.76 454.739 278.849 454.49C280.725 443.478 282.019 432.375 283.065 421.255C288.994 420.117 294.712 418.049 300.007 415.152C301.382 417.458 300.523 420.964 299.911 423.318ZM276.275 451.577C273.543 467.308 269.818 482.841 266.213 498.352C264.304 507.808 260.237 517.558 259.361 526.889C240.964 534.233 221.06 531.379 202.033 528.381C202.326 528.134 202.55 527.755 202.582 527.291C203.054 527.077 203.441 526.649 203.512 526.009C204.583 511.993 206.541 496.748 203.231 483.186C205.418 481.214 207.374 478.922 209.196 476.61C210.854 474.421 207.404 471.526 205.465 473.119C208.149 466.414 210.918 459.744 213.822 453.129C214.598 451.357 211.984 449.812 211.201 451.597C200.388 476.348 191.266 501.68 181.835 526.996C181.31 525.952 179.2 526.077 179.965 527.559C160.644 529.175 140.477 524.244 122.7 516.223C126.948 502.577 131.788 488.676 131.504 474.236C135.665 474.43 141.287 472.061 143.49 468.478C145.691 470.189 148.391 468.088 149.551 466.093C152.231 460.862 150.748 454.475 149.197 449.112C154.67 449.973 161.522 444.896 157.778 439.225C151.992 434.148 145.389 429.823 139.716 424.473C139.231 414.441 143.117 405.079 146.646 395.668C164.481 408.24 181.966 421.767 200.693 432.865C203.913 433.193 206.514 430.756 208.931 428.976C215.828 423.856 222.789 418.805 229.586 413.547C230.332 413.822 231.188 413.754 231.823 413.329C236.163 417.979 240.751 422.273 245.045 426.946C247.624 429.33 249.487 433.052 253.087 433.966C254.771 434.275 255.842 433.577 256.922 432.409C263.471 425.477 270.517 419.04 277.304 412.346C278.177 413.482 279.859 413.098 280.698 412.01C280.017 425.258 278.28 438.466 276.275 451.577ZM264.146 528.477C263.939 528.654 264.184 528.502 264.381 528.798C264.58 530.699 263.464 532.632 263.09 534.499C261.848 537.244 261.969 543.594 258.305 543.691C238.069 547.213 217.622 544.212 197.82 539.684C198.078 535.666 199.322 531.525 198.51 527.546C198.841 527.248 199.193 527.041 199.584 526.96C199.474 527.523 199.55 528.213 199.981 528.492C216.924 535.935 241.469 537.473 259.053 530.555C260.902 531.14 262.284 528.757 260.835 527.443C261.08 527.41 261.315 527.324 261.515 527.173C261.227 528.429 263.067 529.4 264.146 528.477ZM207.807 544.513C208.322 544.65 208.841 544.776 209.359 544.9C208.961 545.85 209.535 547.222 209.379 548.29C209.015 546.965 208.502 545.686 207.807 544.513ZM177.572 533.614C176.766 535.926 175.486 538.498 172.784 538.865C172.152 538.61 171.424 538.655 170.949 539.09C153.337 538.852 131.786 533.541 118.375 521.942C118.214 520.355 118.969 518.758 119.127 517.179C119.348 516.554 119.602 512.613 120.441 513.344C119.801 514.911 119.249 517.211 121.69 516.979C138.958 526.943 159.363 530.738 179.149 530.115C178.519 531.22 178.044 532.418 177.572 533.614ZM140.982 599.479C139.467 604.91 137.847 610.314 136.114 615.679C134.448 623.635 130.436 624.704 124.475 619.491C120.161 616.878 121.98 612.186 122.633 608.143C123.439 603.172 124.485 598.237 125.238 593.26C129.99 596.781 135.973 598.51 141.852 597.74C141.382 598.194 141.177 598.781 140.982 599.479ZM133.041 624.957C132.988 624.942 132.933 624.924 132.88 624.907C132.94 624.887 132.998 624.864 133.056 624.844C133.051 624.882 133.046 624.919 133.041 624.957ZM129.935 635.199C128.055 651.926 122.625 667.996 118.905 684.368C118.485 687.76 115.894 688.999 112.77 687.924C111.486 687.591 109.522 687.116 108.582 686.107C107.511 684.954 108.238 682.707 108.476 681.362C109.952 673.044 111.61 664.762 113.309 656.485C115.331 647.493 116.975 638.323 119.185 629.432C122.388 632.15 126.468 634.06 130.746 634.139C130.332 634.291 129.986 634.645 129.935 635.199ZM118.165 694.981C117.912 695.036 117.66 695.082 117.404 695.122C117.789 693.904 118.156 692.208 117.473 691.072C117.629 691.017 117.781 690.956 117.928 690.888C118.153 692.261 118.309 693.578 118.165 694.981ZM115.988 729.469C120.061 732.113 122.439 736.565 124.523 740.813C125.863 743.538 126.955 746.827 129.005 749.15C129.854 751.438 130.708 753.724 131.522 756.024C133.958 763.594 136.997 771.625 136.704 779.609C136.706 779.601 136.706 779.591 136.711 779.578C136.684 779.779 136.616 779.972 136.57 780.167C136.754 780.039 136.968 779.915 136.679 780.127C136.652 780.105 136.571 780.179 136.567 780.173C136.567 780.178 136.565 780.183 136.565 780.188C136.583 780.173 136.6 780.16 136.623 780.145C136.604 780.159 136.58 780.183 136.56 780.2C136.56 780.206 136.557 780.213 136.555 780.221C136.54 780.234 136.428 780.317 136.451 780.286C136.186 780.408 135.968 780.575 135.766 780.777C120.159 784.162 102.929 784.764 88.4981 777.01C82.9531 765.722 88.6414 746.861 90.917 734.705C98.1819 730.562 107.695 725.305 115.988 729.469ZM122.27 724.987C122.859 727.586 123.256 730.21 123.8 732.809C122.204 731.084 121.382 728.919 119.988 727.095C119.13 725.295 118.21 722.706 116.075 722.373C116.017 720.912 115.977 719.451 115.956 717.989C119.586 718.439 121.499 721.566 122.27 724.987ZM142.045 781.983C142.002 781.27 141.628 780.562 141.016 780.173C141.156 777.657 140.727 775.215 140.333 772.735C142.976 775.558 141.851 780.079 142.282 783.618C142.248 785.027 142.931 786.82 141.294 787.547C136.183 791.081 129.988 792.73 123.882 793.44C110.559 794.967 96.7087 792.516 84.8054 786.321C83.2125 784.163 83.7704 778.915 83.5568 776.151C84.31 778.617 85.6314 780.812 88.2457 781.583C104.44 789.382 123.498 788.443 140.533 784.054C141.649 783.753 142.098 782.883 142.045 781.983ZM99.2894 727.409C99.3829 727.295 99.4713 727.181 99.5623 727.065C100.131 727.037 100.7 726.987 101.268 726.923C100.418 727.263 99.5803 727.632 98.7636 728.046C98.9406 727.836 99.1175 727.624 99.2894 727.409ZM106.187 714.455C107.576 708.596 108.075 702.569 108.78 696.596C110.823 697.321 112.871 697.821 115.018 697.878C112.388 705.851 112.523 714.581 112.595 722.906C109.366 723.455 105.889 723.761 102.724 722.682C104.312 720.138 105.452 717.372 106.187 714.455ZM127.968 468.429C126.196 468.252 124.434 468.376 122.68 468.629C112.298 461.572 110.661 432.629 109.031 420.41C116.461 422.309 124.33 421.798 131.542 419.298C131.678 420.63 133.198 421.316 134.122 420.418C139.013 429.126 146.331 436.098 153.88 442.332C153.792 442.041 153.729 442.574 153.84 442.372C152.878 444.576 149.348 443.433 147.678 444.969C146.606 445.767 146.381 447.165 147.064 448.098C145.257 453.091 148.129 459.187 145.426 463.924C144.818 464.629 144.028 465.137 143.505 465.929C139.907 463.463 136.629 468.679 132.985 468.907C133.01 468.907 133.036 468.907 133.063 468.904C132.503 468.967 131.602 468.936 131.11 468.867C130.064 468.704 129.022 468.534 127.968 468.429ZM134.661 293.962C135.424 288.984 136.314 284.037 137.469 279.137C138.861 279.38 139.172 282.571 139.349 283.511C145.312 310.496 142.73 338.266 140.176 365.503C139.557 372.806 139.046 380.123 138.647 387.444C138.131 390.811 142.002 391.953 144.068 393.797C141.194 403.053 136.235 412.007 136.822 421.864C136.051 421.156 135.287 420.441 134.529 419.72C134.721 419.101 134.886 418.481 135.025 417.857C135.968 417.366 136.268 416.009 135.459 415.294C135.77 374.932 128.198 334.227 134.661 293.962ZM210.012 215.396C211.445 212.846 215.24 216.158 212.856 218.01C211.197 219.354 208.897 217.147 210.012 215.396ZM215.769 242.255C216.93 240.119 220.703 241.179 219.997 243.711C220.007 243.603 220.015 243.517 220.023 243.451C220.123 245.513 216.127 247.186 215.85 244.551C215.415 243.865 215.311 242.968 215.769 242.255ZM221.095 271.267C223.972 270.135 225.032 274.387 222.594 275.52C219.973 276.451 218.529 272.206 221.095 271.267ZM224.453 302.416C225.163 300.01 228.793 300.646 228.767 303.119C228.676 306.458 223.734 305.45 224.453 302.416ZM230.403 332.632C231.412 329.61 235.289 331.174 234.965 334.101C235.388 335.791 232.112 339.203 231.449 336.44C230.564 335.373 230.147 334.002 230.403 332.632ZM236.494 367.482C236.501 367.472 236.509 367.462 236.516 367.452C238.674 368.467 236.807 373.091 234.727 371.393C232.709 370.161 234.106 366.254 236.494 367.482ZM239.333 395.774C241.849 398.249 237.958 402.166 235.475 399.632C232.956 397.162 236.845 393.245 239.333 395.774ZM300.495 414.887C300.528 414.96 300.563 415.033 300.604 415.102C300.538 415.046 300.472 414.991 300.407 414.935C300.435 414.919 300.465 414.905 300.495 414.887ZM206.158 709.694C206.253 711.526 206.389 713.375 206.83 715.15C208.14 722.364 217.405 731.024 225.029 725.841C228.527 723.379 230.058 718.613 234.229 717.068C238.599 715.448 243.384 717.043 247.061 719.549C251.318 722.448 254.634 726.579 258.258 730.187C265.967 737.863 274.516 744.696 283.668 750.574C288.458 753.549 298.487 758.009 294.517 764.974C291.479 769.383 283.833 767.281 282.518 769.769C265.559 770.468 248.965 765.828 232.844 761.078C224.66 758.403 216.096 756.843 208.162 753.443C200.558 746.782 200.533 732.124 201.58 722.729C201.922 720.675 202.77 710.907 205.968 712.646C206.918 712.75 205.538 711.699 205.2 711.828C205.645 711.195 206.011 710.464 206.158 709.694ZM298.44 764.509C298.548 764.562 298.662 764.587 298.778 764.589C299.112 765.444 298.948 768.925 298.884 769.524C297.856 774.762 289.61 775.632 285.238 776.424C269.878 778.845 254.255 777.153 239.269 773.291C231.954 771.478 224.68 769.383 217.58 766.857C211.269 764.936 203.474 761.748 204.25 753.744C207.776 758.492 219.005 759.894 224.655 761.857C242.386 767.244 260.376 773.04 279.089 773.225C281.923 773.103 285.841 773.896 287.968 771.759C292.477 771.115 297.156 768.617 298.44 764.509ZM302.519 357.37C298.412 341.181 291.803 325.773 285.37 310.412C278.417 290.018 276.379 268.417 273.894 247.134C272.528 235.126 271.051 223.135 268.286 211.354C265.936 189.391 243.636 186.997 226.149 183.593C226.173 181.717 226.75 179.584 224.869 178.385C223.143 176.631 213.928 171.181 212.108 173.488C211.393 171.749 211.044 169.82 210.705 167.964C210.478 167.231 210.384 164.705 209.588 164.725C209.418 169.67 207.321 176.908 211.529 180.622C209.003 184.473 206.897 189.139 203.567 192.206C203.57 192.203 203.572 192.201 203.575 192.198C203.408 192.307 203.239 192.405 203.064 192.499C203.105 192.466 202.865 192.555 202.668 192.618C202.215 192.704 201.467 192.538 201.004 192.33H201.009C189.544 185.812 178.327 178.832 167.229 171.683C168.815 169.335 170.868 157.831 168.9 156.236C167.523 160.775 166.09 165.328 164.001 169.599C162.191 168.611 159.263 166.835 157.738 169.157C155.814 172.384 155.265 177.062 157.573 180.271C147.652 184.181 136.953 185.55 126.709 188.606C122.245 189.751 117.519 190.603 113.331 192.588C100.85 199.514 100.84 216.578 99.4714 229.146C95.9591 290.323 84.8183 353.566 102.265 413.58C102.935 415.423 103.926 417.192 104.697 419.005C105.002 419.723 105.796 419.7 106.319 419.311C106.911 419.662 107.56 419.943 108.24 420.17C107.098 435.774 105.55 464.278 120.607 473.582C123.239 474.528 125.723 473.182 128.456 473.827C128.82 487.188 124.578 500.021 120.648 512.679C117.757 510.438 116.649 517.181 115.775 518.918C112.839 525.139 120.677 527.922 124.788 530.611C118.66 549.913 105.97 576.645 124.578 592.751C122.604 597.614 121.591 602.93 120.456 608.057C119.847 611.404 118.247 615.514 120.266 618.619C119.72 618.258 119.204 617.832 118.646 617.489C121.073 617.453 117.484 615.681 116.036 617.004C111.991 620.017 114.987 625.537 118.014 628.368C116.836 629.247 116.43 631.68 116.081 632.835C114.65 637.578 113.396 642.378 112.236 647.194C109.413 659.156 106.792 671.183 104.825 683.314C104.692 684.502 104.77 685.71 105.192 686.78C103.67 686.846 102.755 688.301 102.27 689.571C101.583 692.415 105.226 695.213 107.702 696.177C105.093 704.838 104.858 714.477 99.3306 721.996C98.7366 721.419 97.7205 721.316 97.2125 722.274C96.6577 723.863 93.2475 728.181 94.5257 729.474C94.5686 729.785 94.7279 730.091 94.9655 730.286C93.7447 731.11 92.5794 731.986 91.4193 732.905C92.9707 728.462 94.2585 723.277 97.5939 719.854C98.4737 719.352 99.5985 719.521 100.301 718.684C100.814 718.072 100.84 717.342 100.326 716.742C100.084 716.457 99.5252 716.76 99.6743 717.122C100.099 718.143 97.4855 717.964 96.8839 718.171C91.0159 721.818 88.9099 730.106 87.0082 736.391C84.7243 747.429 81.5272 758.68 82.2336 770.035C81.4743 774.006 80.3812 784.92 82.6835 787.922C94.8345 795.164 109.91 797.29 123.881 795.895C130.109 794.993 146.46 793.018 145.292 784.372C144.901 779.49 146.029 772.97 141.251 769.924C140.702 769.603 140.174 769.691 139.784 769.979C136.863 756.903 130.517 745.149 126.709 732.392C125.112 726.538 123.957 716.51 115.944 716.948C115.687 710.64 116.232 704.173 115.36 697.926C115.36 697.928 115.36 697.928 115.358 697.928C115.353 697.913 115.345 697.898 115.338 697.886C116.984 697.686 119.751 698.126 120.623 696.404C121.069 693.982 121.288 691.138 120.289 688.822C123.292 682.187 123.922 674.488 125.962 667.483C128.496 656.822 131.418 646.153 132.328 635.199C132.376 634.615 132.063 634.253 131.646 634.116C132.296 634.105 132.986 633.943 133.483 633.661C137.97 633.403 140.53 625.431 136.493 622.962C136.529 622.619 136.483 622.318 136.38 622.067C139.11 616.851 140.053 611.15 141.971 605.693C142.334 603.265 144.721 599.676 143.341 597.492C164.061 592.108 169.005 560.326 173.735 542.354C180.566 541.019 179.919 534.513 183.627 530.294C184.277 529.665 184.307 528.909 184.001 528.3C190.559 514.868 194.693 499.628 200.557 485.651C201.349 499.2 201.081 512.814 199.65 526.313C195.319 525.308 195.302 531.291 194.698 534.163C194.385 535.948 194.071 537.73 193.758 539.515C193.298 542.142 196.675 542.892 197.58 540.814C200.284 542.152 203.1 543.176 205.981 544.01C206.59 546.872 207.182 549.693 207.205 552.648C207.385 556.031 205.514 559.421 206.146 562.695C201.974 572.647 195.431 581.185 192.416 591.556C182.449 627.846 202.786 663.186 205.253 699.195C204.213 694.655 204.82 705.744 204.862 706.661C204.973 714.053 198.503 710.628 198.751 726.802C198.294 734.501 198.732 742.385 201.879 749.527C202.577 751.724 201.38 753.912 201.889 756.166C202.389 760.25 205.731 766.438 210.407 765.821C237.087 775.925 267.996 785.089 296.059 775.679C298.01 774.707 300.045 773.451 300.745 771.269C301.343 769.322 302.15 761.951 298.778 762.521C298.851 755.817 292.482 751.767 287.346 748.743C280.166 744.23 273.314 739.202 266.984 733.55C257.388 725.845 249.479 710.962 235.296 713.264C233.449 703.138 235.384 692.811 235.369 682.591C236.293 637.517 245.157 593.327 251.865 548.922C251.925 548.538 251.399 548.376 251.27 548.76C236.825 590.432 233.159 635.142 230.445 678.912C229.547 690.679 230.56 702.39 232.971 713.931C226.625 715.677 225.643 725.561 218.233 724.61C214.296 723.784 210.77 720.676 209.189 717.016C210.873 714.277 209.681 710.448 209.614 707.336C209.353 704.317 209.047 701.301 208.691 698.29C206.234 663.704 187.288 630.244 194.76 595.272C198.332 578.072 215.286 563.642 209.944 545.039C225.168 548.541 241.032 549.236 256.515 547.175C262.134 547 263.93 544.626 265.108 539.388C265.957 535.898 267.691 532.47 267.72 528.846C267.469 526.03 264.08 524.063 262.053 526.285C268.13 504.337 273.251 482.225 277.837 459.93C292.652 466.287 298.487 447.995 301.212 436.98C302.526 430.382 305.353 422.263 301.574 416.093C312.628 420.5 305.279 363.357 302.519 357.37Z" fill="black"/>
<path fill-rule="evenodd" clip-rule="evenodd" d="M243.008 138.225C238.737 118.862 237.905 97.5978 226.634 80.6908C221.709 73.7969 213.795 64.8075 204.55 67.6407C204.931 63.5586 205.29 59.4747 205.623 55.3883C205.813 53.0508 206.688 49.9364 204.71 48.1392C201.445 45.5018 196.039 49.5375 193.515 51.7923C188.048 57.029 185.889 62.1153 178.686 65.6127C175.799 63.5548 172.986 61.3955 170.056 59.3933C167.07 57.3531 162.799 54.039 159.7 57.8054C157.074 60.9979 158.752 66.0301 159.793 69.5426C160.325 71.3391 160.855 73.2999 161.595 75.1474C161.657 76.5518 161.766 77.9536 161.925 79.3514C156.59 80.301 151.099 81.0999 146.002 82.9633C143.222 84.4693 143.467 87.8896 145.439 89.9369C148.391 92.7954 152.125 95.0307 156.202 96.5312C155.462 99.0937 153.687 101.267 151.456 102.687C150.707 103.162 150.287 103.858 150.136 104.6C148.992 105.169 147.767 105.579 146.474 105.845C144.878 106.175 143.956 108.058 144.368 109.555C145.526 113.193 149.609 111.114 152.262 110.857C152.342 113.397 152.383 116.044 153.536 118.398C147.372 120.016 142.032 125.916 143.457 132.563C144.752 138.918 151.61 140.86 157.038 142.304C157.45 142.546 157.448 142.784 157.579 143.384C158.475 147.503 157.721 152.035 156.308 155.946C155.923 157.012 156.489 158.346 157.344 158.986C161.765 161.801 163.231 153.227 168.271 158.685C167.895 158.628 166.959 158.16 167.007 158.838C173.545 170.315 192.85 171.02 204.678 171.302C206.098 171.993 207.732 171.601 209.356 171.16C210.905 171.076 212.452 170.96 213.996 170.803C216.814 170.294 221.771 170.897 221.948 166.927C229.226 164.055 235.484 159.094 239.751 152.521C242.917 148.16 244.167 143.543 243.008 138.225Z" fill="white"/>
<path fill-rule="evenodd" clip-rule="evenodd" d="M198.87 46.6886L199.295 46.503C200.76 45.8686 202.359 45.2601 203.963 45.607C205.81 46.0065 206.878 47.5954 207.335 49.3277C207.864 51.3314 208.101 53.4644 208.246 55.5268C208.396 57.6628 208.338 59.7943 208.177 61.927C208.043 63.7106 207.766 65.7775 207.102 67.5063C207.13 67.481 207.164 67.4623 207.204 67.458C209.817 67.1902 212.224 67.3462 214.719 68.1878C217.044 68.9718 219.297 70.0718 221.319 71.4615C225.688 74.4629 229.068 78.9957 231.423 83.6887C236.207 93.2229 237.216 104.008 238.557 114.435L238.597 114.751C239.319 120.326 240.277 125.817 241.814 131.225L242.08 132.147C243.49 137.095 244.332 141.909 243.207 147.031C241.032 156.936 233.363 164.413 224.492 168.728C219.962 170.932 215.061 172.558 210.111 173.495C205.034 174.457 199.539 174.618 194.91 171.991C192.615 170.688 194.636 167.362 196.955 168.491C201.742 170.822 207.167 170.055 212.136 168.773C217.078 167.499 221.925 165.714 226.304 163.064C233.818 158.517 240.141 150.666 240.349 141.548C240.465 136.418 238.273 131.519 237.217 126.566C236.285 122.201 235.707 117.773 235.162 113.345L234.757 110.055C233.584 100.622 232.114 90.9115 227.271 82.5745C222.996 75.2155 215.632 69.3637 207.157 67.8071C207.106 67.798 207.073 67.7735 207.052 67.7424C206.793 69.1387 205.254 70.4406 204.27 71.2441C202.875 72.3832 201.185 73.2087 199.346 73.1717C195.801 73.1007 192.757 70.3509 190.327 68.048C190.053 67.7886 190.35 67.4266 190.661 67.4736C193.482 67.8981 195.899 70.1898 198.79 70.1557C200.278 70.138 201.418 69.3396 202.389 68.2781C202.752 67.8812 203.071 67.4021 203.416 66.9617C203.501 65.8048 203.829 64.6705 203.975 63.5189C204.112 62.4445 204.229 61.3536 204.299 60.2711C204.44 58.062 204.396 55.8365 204.151 53.6358C204.046 52.6912 203.913 51.7378 203.707 50.8076L203.611 50.3884C203.483 49.812 203.399 49.2869 202.703 49.3461C201.155 49.4771 199.424 50.4218 198.07 51.1347C192.82 53.8997 189.004 58.175 186.187 63.1976C186.364 63.2861 186.533 63.4026 186.691 63.5543C187.008 63.8595 187.172 64.3969 187.026 64.8224C186.464 66.4667 184.464 66.5147 183.058 67.1586C181.525 67.8599 180.085 68.7615 178.722 69.7489C176.038 71.6926 173.572 73.9759 171.228 76.3117C167.535 79.9895 164.106 83.9038 160.795 87.9197L160.09 89.494C159.387 91.0681 158.699 92.6475 158.13 94.287C157.203 96.9531 156.427 99.6787 155.83 102.438C155.23 105.214 154.838 108.055 154.69 110.892C154.557 113.424 154.893 115.954 154.879 118.471C155.104 118.892 155.185 119.366 155.08 119.85C155.788 120.05 156.474 120.356 157.118 120.778C157.275 120.881 157.175 121.127 156.99 121.081C156.173 120.88 155.356 120.835 154.556 120.913C154.131 121.437 153.444 121.77 152.777 121.756L152.492 121.749C152.284 121.745 152.077 121.711 151.877 121.655C150.751 122.174 149.715 122.921 148.839 123.813C146.73 125.96 145.712 128.773 145.862 131.777C146.01 134.741 147.588 137.414 150.202 138.838C151.368 139.473 152.664 139.807 153.989 139.831C155.265 139.854 156.938 139.467 157.986 140.298C158.103 140.391 158.181 140.516 158.229 140.653C158.302 140.345 158.379 140.037 158.464 139.73C158.529 139.496 158.919 139.468 158.967 139.73L159.028 140.071C159.906 145.021 160.215 150.117 163.703 154.079C165.334 155.932 167.301 157.603 169.318 159.022L169.652 159.255C170.514 159.85 171.445 160.428 172.473 160.644C173.615 160.883 174.559 160.817 175.609 161.445C176.103 161.74 176.406 162.392 176.224 162.957C175.059 166.586 170.468 164.956 168.153 163.521C166.866 162.724 165.614 161.76 164.45 160.699C163.435 161.317 162.23 161.716 161.194 161.871C159.597 162.11 157.902 161.778 156.628 160.746C155.281 159.655 154.821 158.067 155.049 156.382C155.163 155.543 155.381 154.725 155.615 153.913L155.809 153.249C156.092 152.283 156.312 151.285 156.882 150.442C157.17 150.016 157.852 150.057 158 150.588C158.339 151.805 158.192 153.178 158.105 154.446L158.086 154.736C158.028 155.69 157.622 157.152 158.458 157.858C159.464 158.709 160.566 158.32 161.638 157.734C161.528 157.601 161.42 157.467 161.315 157.333C157.847 152.924 156.984 147.436 157.934 142.072C157.039 143.246 154.706 143.5 153.468 143.409C151.524 143.266 149.612 142.675 147.956 141.636C144.489 139.46 142.538 135.645 142.456 131.586C142.375 127.644 144.138 123.658 147.389 121.363C148.247 120.757 149.203 120.286 150.2 119.976C149.715 118.05 149.664 115.923 149.769 113.842C148.606 114 147.347 113.795 146.296 113.437L146.133 113.38C144.512 112.799 142.454 111.632 142.151 109.811C141.777 107.571 144.541 106.284 146.144 105.389C146.894 104.971 147.661 104.58 148.457 104.257L148.697 104.162C149.384 103.897 150.193 103.404 150.891 103.797C150.941 103.825 150.953 103.878 150.946 103.931C150.808 104.903 149.215 105.73 148.507 106.343C147.963 106.814 147.437 107.306 146.932 107.819C146.605 108.152 146.113 108.992 145.694 109.228C145.889 109.33 146.122 109.581 146.285 109.677C146.744 109.947 147.227 110.138 147.745 110.261C148.514 110.445 149.284 110.367 150.054 110.349C150.367 107.283 150.935 104.285 151.849 101.34C153.381 96.399 155.894 91.1939 159.479 87.2877C162.107 82.3624 165.502 77.8637 169.379 73.8407C171.866 71.2608 174.493 68.7574 177.407 66.6611C178.698 65.7318 180.057 64.8946 181.499 64.22L181.978 64.0002C182.778 63.6298 183.752 63.1489 184.68 63.0113C185.281 60.6278 186.351 58.3482 187.649 56.282C189.437 53.4351 191.791 51.0339 194.545 49.1153C195.904 48.1683 197.353 47.354 198.87 46.6886ZM151.089 129.705C153.4 128.152 156.234 127.545 158.996 127.774C160.366 127.888 161.721 128.209 163.005 128.7L163.534 128.909C164.76 129.4 166.076 130.007 166.12 131.49C166.138 132.076 165.704 132.542 165.181 132.725C163.905 133.168 162.871 132.106 161.817 131.54C160.753 130.969 159.622 130.592 158.457 130.287C158.346 130.258 158.234 130.231 158.122 130.205C158.183 130.326 158.217 130.461 158.205 130.606C158.176 130.953 158.075 131.21 157.977 131.536C157.948 131.634 157.876 132.236 157.802 132.31C157.826 132.515 157.828 132.709 157.835 132.915C157.852 133.524 157.777 134.039 157.466 134.578C156.692 135.921 154.478 136.045 153.737 134.578C152.995 133.111 153.575 131.676 154.701 130.621C155.008 130.334 155.418 130.041 155.863 129.839C154.301 129.697 152.721 129.764 151.161 129.97C151.009 129.99 150.985 129.775 151.089 129.705ZM151.227 80.496C154.397 79.957 157.707 79.8496 160.906 80.1684C161.08 80.1861 161.145 80.4515 160.95 80.4942C156.086 81.5624 151.043 81.9233 146.703 84.5991L146.504 84.7243C146.087 84.9892 145.096 85.4895 144.89 85.9608C144.646 86.5169 145.305 87.2319 145.612 87.6334C146.301 88.5349 147.158 89.3219 148.103 89.9481C149.102 90.6094 150.175 91.1199 151.33 91.4422C151.879 91.5954 152.448 91.6733 152.99 91.8477C153.607 92.0459 153.806 92.3622 154.274 92.7755C154.813 93.2513 154.632 94.1645 154.051 94.506L153.887 94.6008C153.124 95.0379 152.699 95.1667 151.73 94.9957C150.971 94.8617 150.246 94.5965 149.536 94.3017C148.231 93.7598 147.04 93.0502 145.941 92.1666L145.777 92.0328C143.814 90.4102 140.489 86.8613 142.68 84.2775C144.613 81.9977 148.411 80.9748 151.227 80.496ZM159.033 55.9139C162.073 52.3321 166.366 54.7778 169.413 56.9194C172.696 59.227 175.544 61.949 177.847 65.2379C177.994 65.4469 177.711 65.7013 177.507 65.5784C174.953 64.0385 172.373 62.5644 169.754 61.1373C168.678 60.5513 167.601 59.9794 166.501 59.4439L165.913 59.1609C164.994 58.7071 163.674 57.879 162.694 58.419C160.58 59.5842 161.885 63.4005 162.32 65.2488L162.36 65.4232L163.688 71.5056L164.293 74.244C164.508 74.4184 164.687 74.6518 164.814 74.9526C165.157 75.7659 164.877 76.8646 164.048 77.2914C161.601 78.5509 160.772 76.091 160.311 74.2425C159.937 72.7408 159.559 71.24 159.18 69.7395L158.552 67.2597C157.592 63.5059 156.228 59.219 159.033 55.9139Z" fill="black"/>
<path fill-rule="evenodd" clip-rule="evenodd" d="M210.353 153.438C208.654 152.744 207.138 151.588 206.029 150.111C205.644 149.597 205.544 149.055 205.625 148.559C205.716 148.001 206.046 147.495 206.496 147.156C206.947 146.816 207.511 146.648 208.057 146.734C208.531 146.808 209.004 147.068 209.377 147.607L209.455 147.714C210.114 148.606 210.973 149.338 211.951 149.809C212.894 150.264 213.949 150.476 215.04 150.352C217.119 150.117 218.552 148.993 220.074 147.466C220.263 147.273 220.452 147.075 220.642 146.873C220.762 146.689 220.928 146.572 221.113 146.51C221.318 146.441 221.55 146.445 221.762 146.519C221.967 146.591 222.15 146.727 222.273 146.907C222.39 147.078 222.456 147.29 222.435 147.534C222.295 149.116 221.468 150.528 220.293 151.637C218.988 152.869 217.259 153.721 215.63 154.02C213.836 154.349 212.008 154.113 210.353 153.438ZM216.477 129.026C218.385 130.187 221.293 132.893 219.24 135.769C216.823 138.306 213.343 135.398 211.629 134.082C210.039 133.063 208.252 135.685 209.727 136.875C222.118 146.051 227.147 129.33 217.442 127.662C216.373 127.478 215.976 128.667 216.477 129.026ZM194.272 118.352C194.482 115.734 198.469 115.14 198.866 117.73C199.221 120.051 198.803 122.183 197.758 124.273C196.759 126.269 194.249 125.338 194.059 123.52C193.805 121.083 194.14 119.981 194.272 118.352ZM224.618 117.193C225.174 116.465 225.977 115.968 226.938 116.249C229.942 117.127 229.057 121.393 228.002 123.469C227.429 124.596 225.576 124.882 224.738 123.89C223.373 122.271 222.72 119.037 224.455 117.443C224.502 117.36 224.554 117.277 224.618 117.193ZM197.715 106.896L198.19 106.813C199.658 106.559 201.483 106.315 202.521 107.495C203.072 108.121 203.262 109.285 202.521 109.884C201.219 110.938 199.78 110.529 198.219 110.619C196.933 110.693 195.697 110.905 194.458 111.26C191.741 112.037 189.526 113.455 187.205 115.012C186.901 115.216 186.59 114.827 186.735 114.542C188.075 111.917 190.671 109.761 193.272 108.446C194.66 107.745 196.18 107.163 197.715 106.896ZM221.88 105.72L222.243 105.794C226.196 106.621 231.331 108.271 233.203 112.154C233.274 112.704 233.198 112.821 233.137 112.898L233.117 112.924C233.066 112.989 233.026 113.08 232.788 113.155C232.722 113.139 232.655 113.122 232.588 113.105C231.73 112.88 231.051 112.57 230.394 112.248L229.682 111.897C228.855 111.492 228.021 111.101 227.137 110.813C225.251 110.197 223.311 109.764 221.341 109.533C220.914 109.482 220.503 109.338 220.178 109.091C219.871 108.857 219.635 108.532 219.528 108.101C219.389 107.542 219.429 107.119 219.729 106.615C219.954 106.237 220.276 105.975 220.646 105.824C221.024 105.671 221.453 105.635 221.88 105.72Z" fill="black"/>
<path fill-rule="evenodd" clip-rule="evenodd" d="M237.777 125.251C237.063 127.196 235.975 129.222 234.645 130.859C229.262 135.418 224.033 132.894 221.377 126.716C220.368 122.349 223.047 117.646 225.886 114.434C229.985 110.324 236.676 112.481 238.561 117.367C238.676 118 238.745 118.631 238.778 119.261C238.739 121.306 238.492 123.055 237.777 124.998M186.043 121.327C193.133 112.891 206.398 112.44 206.059 125.423C204.536 141.857 178.889 137.823 186.043 121.327ZM240.007 114.29C239.759 113.869 239.483 113.462 239.182 113.072C239.071 113.006 239.007 112.418 238.598 112.375C233.132 106.343 223.529 109.765 220.059 115.776C219.425 116.535 218.908 117.425 218.527 118.365C215.108 117.738 211.123 117.86 207.943 119.151C204.79 110.917 195.245 110.182 188.954 113.7C185.042 115.625 182.505 119.655 178.7 121.869C169.755 122.513 160.155 120.509 151.372 122.753C144.445 124.193 150.236 127.702 151.397 125.36C159.678 122.913 169.489 124.981 178.087 124.43C178.981 125.942 180.696 127.18 182.404 127.127C184.25 143.489 208.106 140.776 208.929 126.231C209.862 124.755 211.023 123.342 212.685 122.423C213.321 122.291 213.935 122.12 214.497 121.855C215.457 121.719 216.936 122.126 217.819 122.926C220.844 141.082 238.273 138.967 241.388 123.062C241.45 122.999 241.623 122.761 241.756 122.381C242.822 120.971 245.432 120.447 245.015 118.067C244.644 115.686 241.638 115.714 240.007 114.29Z" fill="black"/>
</svg>
