<svg width="213" height="230" viewBox="0 0 213 230" fill="none" xmlns="http://www.w3.org/2000/svg">
<g clip-path="url(#clip0_12_548)">
<path fill-rule="evenodd" clip-rule="evenodd" d="M49.5138 236.021C55.7503 236.04 61.8101 236.253 68.0642 236.274C93.4865 236.359 119.143 236.236 144.657 235.205C151.869 234.913 153.669 234.921 160.849 234.468C165.088 234.453 177.823 234.103 177.186 228.326C176.904 217.568 174.241 206.855 173.403 196.126C171.793 175.956 170.422 155.155 162.34 136.29C160.469 131.784 156.451 128.838 152.473 126.189C148.485 123.331 147.506 120.158 143.824 116.929C143.046 116.246 138.625 115.968 136.247 114.237C132.785 111.716 131.068 107.589 129.777 106.887C128.826 106.37 128.844 102.804 126.939 101.542C124.383 99.8481 116.237 98.5887 113.274 98.3532C110.429 98.1271 105.482 98.602 102.813 99.6439C98.3622 101.381 96.587 104.696 94.627 108.966C68.7323 116.972 45.0638 130.528 37.7133 157.872C31.3745 180.806 31.1422 205.392 33.591 228.912C34.0809 230.632 33.7375 233.328 35.2234 234.468C30.0597 234.765 48.8133 235.83 49.5138 236.021Z" fill="white"/>
<path fill-rule="evenodd" clip-rule="evenodd" d="M167.293 213.376C166.803 213.131 166.292 212.851 165.733 212.832C164.772 212.798 164.77 211.303 165.733 211.336C166.572 211.366 167.309 211.716 168.048 212.084C168.91 212.515 168.152 213.804 167.293 213.376ZM165.733 171.275C166.389 171.276 167.05 171.358 167.553 171.817C167.853 172.09 167.829 172.599 167.553 172.875C167.258 173.17 166.794 173.147 166.496 172.875C166.593 172.963 166.497 172.876 166.461 172.856C166.453 172.852 166.448 172.848 166.446 172.846C166.439 172.844 166.431 172.843 166.419 172.84C166.341 172.82 166.264 172.801 166.185 172.787C166.183 172.79 166.018 172.776 165.979 172.774C165.897 172.771 165.815 172.771 165.733 172.771C165.327 172.771 164.985 172.429 164.985 172.023C164.985 171.619 165.329 171.275 165.733 171.275ZM158.702 188.052C158.488 188.992 157.047 188.592 157.261 187.655C157.571 186.292 157.515 184.897 157.261 183.529C157.086 182.587 158.527 182.187 158.702 183.132C159.007 184.772 159.075 186.418 158.702 188.052ZM156.814 134.298C155.7 134.034 154.599 134.003 153.46 134.002C152.496 134.002 152.498 132.506 153.46 132.506C154.73 132.507 155.971 132.561 157.212 132.856C158.149 133.079 157.749 134.521 156.814 134.298ZM153.082 170.73C152.437 170.407 151.791 170.084 151.145 169.761C150.283 169.33 151.041 168.04 151.899 168.469L153.837 169.439C154.699 169.87 153.941 171.159 153.082 170.73ZM152.814 200.185C151.995 201.366 150.843 202.1 149.461 202.467C148.528 202.714 148.134 201.271 149.063 201.025C150.052 200.762 150.93 200.285 151.523 199.43C152.068 198.643 153.364 199.392 152.814 200.185ZM147.647 147.524C147.425 147.109 147.092 146.934 146.678 146.925C145.715 146.903 145.715 145.407 146.678 145.429C147.622 145.451 148.487 145.925 148.938 146.769C149.392 147.618 148.101 148.373 147.647 147.524ZM138.164 157.69C137.896 157.983 137.376 157.975 137.106 157.69C136.941 157.516 136.803 157.322 136.693 157.108C136.652 157.027 136.613 156.945 136.567 156.866C136.547 156.831 136.524 156.796 136.501 156.763C136.493 156.756 136.477 156.739 136.46 156.721C136.173 156.417 136.18 155.969 136.46 155.664C136.728 155.372 137.248 155.379 137.518 155.664C137.683 155.838 137.821 156.032 137.93 156.246C137.972 156.327 138.011 156.409 138.057 156.488C138.077 156.523 138.1 156.558 138.123 156.591C138.131 156.598 138.147 156.615 138.164 156.633C138.451 156.937 138.444 157.385 138.164 157.69ZM137.366 179.776C136.392 180.222 135.324 180.222 134.35 179.776C133.982 179.607 133.894 179.075 134.082 178.753C134.3 178.38 134.738 178.317 135.105 178.485C135.547 178.687 136.17 178.687 136.611 178.485C136.98 178.316 137.414 178.376 137.634 178.753C137.823 179.077 137.733 179.608 137.366 179.776ZM134.71 195.409C134.542 195.805 134.181 196.016 133.759 196.032C133.34 196.048 133.029 195.677 133.011 195.284C133 195.031 133.137 194.814 133.334 194.68C133.334 194.666 133.334 194.652 133.334 194.638C133.334 194.219 133.677 193.908 134.082 193.89C134.485 193.872 134.83 194.247 134.829 194.638C134.829 194.902 134.813 195.164 134.71 195.409ZM130.852 220.263C129.659 220.282 128.493 220.566 127.3 220.586C126.335 220.601 126.338 219.105 127.3 219.09C128.493 219.071 129.659 218.786 130.852 218.767C131.816 218.751 131.813 220.247 130.852 220.263ZM125.891 124.414C125.192 125.08 124.329 125.407 123.479 125.823C122.617 126.245 121.859 124.954 122.724 124.532C123.445 124.179 124.242 123.919 124.833 123.356C125.531 122.692 126.589 123.749 125.891 124.414ZM124.016 141.654C123.526 141.409 123.015 141.129 122.455 141.11C121.494 141.076 121.493 139.58 122.455 139.614C123.295 139.643 124.032 139.993 124.77 140.362C125.633 140.793 124.874 142.082 124.016 141.654ZM115.027 210.846C114.806 210.432 114.472 210.257 114.058 210.247C113.096 210.225 113.096 208.73 114.058 208.752C115.002 208.773 115.868 209.247 116.319 210.091C116.772 210.941 115.481 211.695 115.027 210.846ZM111.914 178.367C111.617 178.094 111.638 177.586 111.914 177.31C112.237 176.986 112.56 176.663 112.883 176.34C113.179 176.045 113.642 176.066 113.941 176.34C114.238 176.613 114.217 177.121 113.941 177.398C113.617 177.721 113.295 178.044 112.972 178.367C112.676 178.663 112.213 178.641 111.914 178.367ZM108.244 228.986C107.166 228.96 106.155 228.651 105.139 228.313C104.229 228.01 104.621 226.566 105.536 226.87C106.419 227.164 107.306 227.468 108.244 227.49C109.207 227.512 109.207 229.008 108.244 228.986ZM103.4 197.001C102.425 196.974 101.617 196.478 100.933 195.813C100.242 195.141 101.301 194.084 101.991 194.755C102.382 195.136 102.833 195.49 103.4 195.506C104.362 195.532 104.363 197.028 103.4 197.001ZM106.408 155.869C106.42 156.268 106.588 156.694 106.835 156.956C107.496 157.656 106.44 158.715 105.778 158.014C105.232 157.435 104.936 156.661 104.913 155.869C104.886 154.905 106.381 154.909 106.408 155.869ZM95.0037 123.293C94.6908 122.681 94.2807 121.962 93.657 121.623C92.81 121.164 93.5657 119.873 94.4118 120.332C95.2595 120.792 95.8662 121.699 96.2948 122.539C96.7321 123.395 95.4414 124.151 95.0037 123.293ZM93.0654 138.848C92.7185 138.838 92.3743 138.779 92.0397 138.688C91.8967 138.649 91.7554 138.605 91.6123 138.566C91.551 138.549 91.2906 138.517 91.4506 138.525C91.0458 138.503 90.703 138.2 90.703 137.777C90.703 137.389 91.0469 137.008 91.4506 137.029C92.0055 137.059 92.5101 137.337 93.0654 137.353C94.027 137.38 94.0278 138.875 93.0654 138.848ZM88.2206 162.755H86.6058C85.6421 162.755 85.6438 161.26 86.6058 161.26H88.2206C89.1843 161.26 89.1826 162.755 88.2206 162.755ZM86.3368 228.883C85.8471 229.128 85.27 229.361 84.8734 229.736C84.174 230.397 83.1154 229.341 83.8161 228.678C84.3213 228.2 84.9672 227.9 85.5823 227.592C85.9447 227.411 86.3903 227.492 86.6052 227.86C86.7994 228.193 86.6979 228.703 86.3368 228.883ZM82.7292 209.985C82.6666 209.968 82.6005 209.955 82.5371 209.947C82.2829 209.912 82.017 209.924 81.7617 209.924C80.798 209.924 80.7995 208.428 81.7617 208.429C82.5199 208.429 83.309 208.44 83.9052 208.971C84.2078 209.24 84.1785 209.755 83.9052 210.028C83.6081 210.325 83.1492 210.297 82.8479 210.028C82.8797 210.057 82.7707 209.997 82.7292 209.985ZM81.7615 184.568C81.9787 184.12 81.982 183.828 81.9824 183.331C81.9832 182.367 83.4784 182.368 83.4776 183.331C83.4773 184.053 83.3698 184.669 83.0526 185.323C82.8756 185.688 82.3575 185.784 82.0299 185.592C81.6624 185.377 81.5856 184.932 81.7615 184.568ZM77.4383 149.483C76.5711 149.778 75.7969 150.196 75.0333 150.7C74.2271 151.232 73.479 149.936 74.2785 149.408C75.1501 148.833 76.0515 148.377 77.0408 148.041C77.9555 147.729 78.3444 149.175 77.4383 149.483ZM72.3953 124.31C71.751 124.328 71.086 124.575 70.5118 124.854C69.6489 125.273 68.8918 123.983 69.7573 123.563C70.5774 123.164 71.4748 122.84 72.3953 122.814C73.3595 122.787 73.3554 124.283 72.3953 124.31ZM70.1344 191.509C69.8809 191.52 69.6643 191.383 69.5301 191.186C69.5161 191.186 69.5023 191.186 69.4884 191.186C69.0694 191.186 68.7591 190.843 68.7408 190.438C68.7227 190.034 69.0974 189.69 69.4884 189.69C69.7523 189.69 70.0142 189.706 70.2594 189.81C70.6554 189.977 70.8659 190.339 70.882 190.761C70.8979 191.18 70.5267 191.491 70.1344 191.509ZM66.4578 139.791C65.5396 140.091 65.1497 138.646 66.0603 138.349C67.1292 137.999 68.2214 137.729 69.2901 137.379C70.2084 137.079 70.5983 138.524 69.6875 138.822C68.619 139.171 67.5265 139.441 66.4578 139.791ZM63.1046 168.022C62.8198 168.94 61.3771 168.546 61.6627 167.624C61.9385 166.735 61.9583 165.839 61.9589 164.915C61.9595 163.951 63.4547 163.953 63.4541 164.915C63.4536 165.967 63.4182 167.009 63.1046 168.022ZM53.1075 201.835C53.0531 202.208 52.7578 202.476 52.3713 202.494C51.9779 202.511 51.6095 202.137 51.6237 201.746C51.6512 200.993 52.2648 200.379 53.0172 200.352C53.4359 200.336 53.7473 200.707 53.7649 201.1C53.7821 201.482 53.4632 201.78 53.1075 201.835ZM48.0483 158.852C47.2583 159.116 46.414 159.367 45.7946 159.952C45.0947 160.613 44.0361 159.557 44.7373 158.894C45.5541 158.123 46.6047 157.759 47.651 157.41C48.5672 157.104 48.9565 158.549 48.0483 158.852ZM44.6198 187.908C44.4026 188.279 43.9628 188.346 43.5971 188.176C43.1066 187.948 42.5652 187.956 42.0364 187.955C41.0729 187.954 41.0744 186.459 42.0364 186.46C42.8521 186.46 43.6045 186.537 44.3518 186.885C44.7194 187.056 44.8089 187.584 44.6198 187.908ZM42.6825 223.17C42.2639 223.185 41.9525 222.815 41.9349 222.422C41.9177 222.04 42.2364 221.742 42.5924 221.686C42.6466 221.314 42.9421 221.046 43.3285 221.028C43.7221 221.011 44.0905 221.385 44.0761 221.776C44.0486 222.529 43.4354 223.142 42.6825 223.17ZM178.902 228.826C178.648 227.911 178.066 227.173 177.627 226.35C177.48 226.073 177.429 225.9 177.349 225.697C177.241 225.915 177.03 226.078 176.714 226.078C176.107 226.078 175.397 226.039 174.83 226.299C174.462 226.468 174.028 226.408 173.807 226.031C173.618 225.707 173.708 225.176 174.076 225.007C174.91 224.625 175.808 224.583 176.714 224.582C176.937 224.582 177.107 224.664 177.226 224.788C177.572 220.047 177.564 215.302 177.236 210.557C176.887 205.487 176.083 200.517 175.242 195.512C174.835 193.086 174.306 190.634 174.409 188.163C174.512 185.708 175.564 183.42 174.818 180.957C174.519 179.97 174.007 179.065 173.674 178.089C173.317 177.038 173.349 176.001 173.512 174.913C173.846 172.697 174.401 170.508 173.513 168.345C173.121 167.385 172.485 166.529 172.179 165.538C171.798 164.306 171.85 162.943 171.787 161.666C171.658 159.09 171.624 156.497 171.411 153.926C171.316 152.774 171.108 151.682 170.635 150.626C170.181 149.609 169.506 148.684 169.205 147.605C168.906 146.543 168.88 145.423 168.719 144.337C168.551 143.189 168.288 142.058 167.933 140.954C166.561 136.684 164.047 132.848 161.077 129.522C157.92 125.986 154.147 123.324 150.141 120.843C148.035 119.538 145.929 118.233 143.824 116.929C143.78 117.174 143.623 117.398 143.324 117.499C142.533 117.763 141.69 118.014 141.07 118.599C140.37 119.259 139.311 118.203 140.013 117.541C140.744 116.85 141.664 116.486 142.599 116.167C141.64 115.562 140.671 114.936 139.589 114.587C138.641 114.28 137.243 114.548 136.475 113.852C135.871 113.304 135.68 112.289 135.449 111.545C135.159 110.621 134.909 109.647 134.541 108.75C134.29 108.137 133.926 107.548 133.466 107.073C133.264 106.295 132.894 105.585 132.24 105.153C130.528 104.02 128.425 105.145 127.672 106.761C127.05 106.759 126.393 106.895 125.788 106.933C124.543 107.011 123.297 107.047 122.05 107.043C119.611 107.035 117.17 106.877 114.751 106.553C110.426 105.974 106.23 104.805 101.978 103.894C101.954 103.838 101.926 103.782 101.892 103.726C100.977 102.189 98.6945 102.449 97.2571 103.031C96.6405 103.279 96.0125 103.593 95.6592 104.177C95.2854 104.429 94.9621 104.736 94.7471 105.059C94.3023 105.727 93.9584 107.073 93.0557 107.185C92.4613 107.258 91.8576 107.144 91.2539 107.23C90.4988 107.335 89.8223 107.6 89.1251 107.903C83.8171 110.208 78.3296 112.772 72.5691 113.665C71.218 113.875 69.8424 114.091 68.6686 114.849C67.7154 115.464 66.9788 116.309 66.1922 117.111C65.4259 117.892 64.7941 118.238 63.7007 118.379C62.3737 118.549 61.2243 118.915 60.2543 119.88C59.4487 120.682 58.9235 121.707 58.2918 122.638C57.6486 123.587 56.705 124.122 55.7256 124.674C53.4099 125.979 51.253 127.555 49.3747 129.445C45.4179 133.431 43.0218 138.554 40.6071 143.546C37.996 148.945 35.5551 154.41 33.8617 160.176C32.202 165.837 31.2152 171.661 30.7592 177.54C30.2788 183.707 30.2115 189.9 29.8116 196.071C29.6116 199.154 29.4602 202.241 29.3069 205.326C29.1574 208.374 28.9387 211.427 28.974 214.478C29.0415 220.377 30.2207 226.294 32.2824 231.817C32.7964 233.191 33.3663 234.547 33.9737 235.882C34.5066 237.054 36.3289 236.923 36.9008 235.882C37.0316 235.642 37.1344 235.395 37.2204 235.145C38.7156 235.158 40.2258 235.042 41.7116 235.18C44.3358 235.425 46.9653 235.562 49.5969 235.725C54.8042 236.048 60.0206 236.263 65.2296 236.56C65.735 236.589 66.2404 236.618 66.7456 236.648C63.0335 225.155 63.515 212.729 62.9275 200.776C62.8802 199.813 64.3758 199.818 64.4227 200.776C65.0126 212.781 64.5104 225.238 68.3537 236.75C69.8448 236.851 71.3338 236.974 72.8179 237.155C74.0176 237.299 75.2233 237.469 76.4344 237.409C77.8082 237.344 79.1501 237.03 80.4902 236.757C82.9255 236.261 85.2712 236.485 87.7159 236.79C90.3306 237.117 92.9547 237.299 95.5863 237.413C106.124 237.875 116.732 238.295 127.266 237.59C129.816 237.42 132.359 237.181 134.892 236.856C137.501 236.521 140.082 235.958 142.689 235.639C145.259 235.324 147.622 236.186 150.162 236.345C152.752 236.508 155.412 235.968 157.978 235.657C158.815 235.556 159.653 235.457 160.492 235.359C159.412 227.96 158.799 220.505 158.203 213.053C158.126 212.092 159.622 212.1 159.698 213.053C160.289 220.447 160.889 227.846 161.967 235.187C166.41 234.67 170.858 234.147 175.255 233.341C176.508 233.113 177.752 232.741 178.502 231.623C179.057 230.794 179.169 229.779 178.902 228.826Z" fill="black"/>
<path fill-rule="evenodd" clip-rule="evenodd" d="M145.323 71.914C144.92 68.3776 145.441 60.9858 145.476 60.5367C145.696 57.6977 144.367 46.4868 141.853 47.5197C137.636 44.1804 132.019 43.443 126.767 43.0907C115.858 42.359 104.253 44.0388 95.8293 51.3828C91.6634 55.1966 87.6078 60.7437 87.9338 66.5194C84.1488 71.994 78.8129 79.5038 83.5288 85.9041C85.1318 87.949 87.6795 88.7105 89.6933 90.2591C93.7438 93.5272 96.285 98.2174 100.374 101.466C111.207 111.204 129.601 113.238 140.245 102.162C148.475 94.1406 147.144 82.1402 145.696 71.914C144.723 65.0389 146.108 78.8132 145.323 71.914Z" fill="white"/>
<path fill-rule="evenodd" clip-rule="evenodd" d="M112.194 28.0938C115.112 27.5049 118.107 27.1385 121.087 27.2488L121.317 27.2577C123.558 27.3473 126.397 27.5456 128.353 28.8496C128.465 28.7366 128.646 28.6787 128.81 28.757C131.134 29.8666 133.69 30.6689 136.137 31.4661C138.573 32.2594 141.1 32.7831 143.653 32.9942C144.613 33.0736 145.435 34.1111 144.827 35.0416C144.683 35.2633 144.542 35.4873 144.401 35.7119C144.636 35.6874 144.871 35.6621 145.106 35.6384C145.878 35.5606 146.65 36.3853 146.604 37.1377C146.575 37.6109 146.524 38.0785 146.449 38.5404C146.743 38.5343 147.035 38.5784 147.318 38.6979C148.749 39.3023 148.649 41.0072 148.542 42.3044C148.394 44.1045 147.721 46.0111 146.471 47.3584C147.404 48.3278 148.065 49.4855 148.459 50.8604C148.744 51.8644 148.904 52.9338 148.825 53.979L148.8 54.2919C148.703 55.4261 148.51 56.6817 147.694 57.4976C147.276 57.9183 146.76 58.0716 146.268 58.023C146.565 60.6368 146.756 63.2655 146.935 65.8848L147.02 67.1368C147.42 73.1906 147.721 79.2839 147.642 85.3478C147.569 91.0146 146.45 96.5151 142.975 101.116C139.811 105.306 135.267 108.395 130.127 109.569C127.357 110.203 124.53 110.248 121.726 109.844C120.367 109.647 118.999 109.346 117.709 108.872C116.282 108.344 115.255 107.568 114.295 106.405C113.84 105.854 114.059 104.68 114.964 104.79C116.332 104.956 117.581 105.156 118.893 105.561L119.081 105.62C120.388 106.039 121.741 106.351 123.107 106.484C125.905 106.755 128.746 106.482 131.426 105.633C135.79 104.25 139.549 101.167 141.958 97.2929C144.818 92.701 145.141 87.4885 145.1 82.2086C145.056 76.4149 144.867 70.6179 144.56 64.8301L144.507 63.8656C144.345 60.8873 144.188 57.9071 144.05 54.9269C144.007 53.9921 143.941 53.0498 143.823 52.1168C142.745 51.4849 141.779 50.6136 141.149 49.5386C139.884 50.0621 138.553 50.4398 137.328 50.7408C134.492 51.4385 131.548 51.6079 128.661 51.171C127.883 51.4927 127.088 51.7756 126.282 52.019C126.064 52.1157 125.846 52.2107 125.629 52.3038C123.685 53.1358 121.713 53.8406 119.661 54.3566L119.157 54.4824C118.077 54.7487 116.904 55.0109 115.755 55.0933C115.566 55.1662 115.362 55.2279 115.139 55.2821C114.093 55.5364 113.007 55.6168 111.934 55.527C110.889 55.4392 110.134 54.3828 110.71 53.3938C111.13 52.6721 111.555 51.9523 111.983 51.2344C110.493 51.8551 108.955 52.3711 107.404 52.8086C105.837 53.2498 104.249 53.6219 102.658 53.964C101.808 54.1454 100.954 54.3062 100.105 54.4875C99.4977 54.6165 98.5651 54.6838 98.0696 55.0839C97.5221 55.5233 97.367 56.5479 97.1594 57.1798C96.8865 58.0006 96.6304 58.8251 96.3968 59.6589C95.9316 61.3229 95.5503 63.0112 95.255 64.7163C94.9597 66.4233 94.7614 68.1471 94.6511 69.8765C94.5411 71.604 94.5895 73.3428 94.4121 75.0629C94.3166 75.9753 93.3374 76.4445 92.6141 75.807C92.5292 75.7322 92.4437 75.6566 92.359 75.5801L92.2328 75.4649C91.614 74.904 91.014 74.3094 90.5189 73.6401C90.4292 73.5167 90.3432 73.3877 90.2628 73.2568C90.2498 73.2568 90.2386 73.2531 90.2255 73.2437L90.0882 73.1404C88.5766 72.0149 86.0512 70.5476 84.5773 72.4173C84.1076 73.013 83.8671 73.7715 83.6675 74.5032L83.3173 75.8128C83.0908 76.6676 82.8776 77.5273 82.7529 78.4021C82.4707 80.3614 82.6127 82.6199 83.9605 84.1904C84.4988 84.8186 85.2408 85.2674 86.0686 85.3851C86.5304 85.4487 86.9864 85.3702 87.4444 85.3122C87.9097 85.2543 88.3581 85.3478 88.8237 85.3029C89.5638 85.23 89.8872 86.1162 89.6106 86.6733C89.461 86.9725 89.2852 87.2305 89.0854 87.4492C89.2459 87.5876 89.3994 87.7371 89.547 87.8942C89.9844 88.0344 90.3767 88.3354 90.6703 88.7337C90.9077 89.0552 91.0308 89.4049 91.0516 89.7732C91.0776 89.8648 91.1 89.9583 91.1207 90.0536L91.5217 90.7046C91.6099 90.8474 91.6978 90.9884 91.7859 91.1268C92.8064 92.7347 93.9392 94.0958 95.3466 95.3784C96.7016 96.6123 98.1724 97.7173 99.4454 99.041L99.5953 99.1981C100.782 100.449 102.033 101.963 101.569 103.782C101.449 104.25 100.796 104.586 100.371 104.27C99.0005 103.253 98.3107 101.642 97.1483 100.408C95.952 99.1363 94.6268 97.994 93.4271 96.7264C92.2924 95.5298 91.3972 94.1743 90.7226 92.6823C90.4533 92.9796 90.061 93.1909 89.5171 93.2731C88.5826 93.4134 87.7114 92.8656 87.3042 92.056C87.0423 92.1719 86.7752 92.2766 86.5059 92.3589C85.0892 92.7926 84.1979 91.2165 84.7324 90.0518C85.0182 89.4273 85.3752 88.8851 85.8183 88.4289C84.4332 88.2382 83.0239 87.5221 82.1137 86.6285C79.8299 84.383 79.5159 81.0083 80.0299 78.0076C80.3028 76.4165 80.7736 74.8067 81.385 73.3129C81.4913 73.053 81.6055 72.7913 81.7306 72.5333C81.6614 72.5314 81.5904 72.5015 81.5455 72.4435C81.1325 71.8789 80.6299 71.4171 80.3232 70.7851C80.041 70.2056 79.7271 69.6185 79.5045 69.0146C79.0468 67.7788 78.8225 66.384 78.673 65.0771C78.3646 62.4017 78.4841 59.7431 78.8936 57.0844C79.5905 52.5562 81.2741 48.2227 83.7545 44.4203C83.6195 44.3493 83.4901 44.2636 83.3694 44.1623L83.3099 44.1103L83.2131 44.0228C82.5053 43.3821 82.5664 42.1812 83.2131 41.5322L83.4173 41.3274C83.6759 41.0704 83.899 40.8668 84.3167 40.587C84.3784 40.5456 84.4414 40.5067 84.5051 40.4705C84.2865 40.0663 84.2106 39.5936 84.3629 39.0722C84.8937 37.2556 87.5066 37.3199 89.1627 38.1121C90.9949 36.4764 93.0266 35.0564 95.2287 33.9066C100.473 31.1694 106.404 29.2605 112.194 28.0938ZM85.084 75.9379C86.0634 75.6182 87.3642 76.2894 88.2446 76.6932C89.3604 77.2055 90.3098 77.9627 91.2294 78.7629C91.6873 79.163 91.7693 79.8174 91.6555 80.3764C91.6441 80.4325 91.6331 80.4904 91.6198 80.5484C91.4983 81.1448 90.833 81.6141 90.2442 81.5973C89.0125 81.5636 88.4258 80.4998 87.7285 79.5986C87.6465 79.7444 87.5437 79.8791 87.4164 79.98L87.3304 80.0473C87.0411 80.2677 86.7221 80.4439 86.3398 80.4269C86.0688 80.4138 85.8092 80.3446 85.5698 80.2193C84.9717 79.9034 84.7084 79.1293 84.8708 78.4993C84.9717 78.1029 85.2035 77.7925 85.5062 77.5775L85.3934 77.5003C85.1519 77.3322 84.9316 77.155 84.76 76.8934L84.7213 76.8316H84.7362C84.5493 76.51 84.671 76.0725 85.084 75.9379Z" fill="black"/>
<path fill-rule="evenodd" clip-rule="evenodd" d="M131.213 94.7531C129.836 95.152 128.359 95.1877 126.955 94.7757C125.682 94.402 124.375 93.5796 123.438 92.4914C122.606 91.5247 122.067 90.3499 122.088 89.0959C122.091 88.9527 122.142 88.8332 122.221 88.7404C122.305 88.6405 122.424 88.5719 122.551 88.5422C122.681 88.5115 122.819 88.5224 122.936 88.5757C123.043 88.6241 123.134 88.7061 123.191 88.826C123.335 89.0152 123.478 89.2016 123.622 89.3828C124.78 90.8128 125.901 91.8814 127.642 92.2647C128.586 92.4727 129.529 92.3805 130.395 92.0631C131.322 91.7234 132.159 91.1261 132.815 90.3618C133.112 90.0164 133.462 89.8754 133.805 89.873C134.193 89.8703 134.576 90.0507 134.865 90.3389C135.149 90.6223 135.339 91.0073 135.356 91.4101C135.372 91.7637 135.256 92.1329 134.95 92.4624C133.939 93.5476 132.63 94.3426 131.213 94.7531ZM131.171 76.8435C132.583 77.7017 134.733 79.7027 133.215 81.8303C131.428 83.7062 128.854 81.5553 127.586 80.5826C126.411 79.8287 125.09 81.7676 126.18 82.6479C135.343 89.4338 139.062 77.0679 131.885 75.8345C131.095 75.6986 130.801 76.578 131.171 76.8435ZM117.969 73.0674C117.515 72.7772 116.981 72.6775 116.39 72.9467C115.928 73.1569 115.117 73.8578 114.553 74.7791C114.167 75.4094 113.894 76.1488 113.951 76.919C113.964 77.0978 113.898 77.2297 113.794 77.3272C113.711 77.4043 113.592 77.4609 113.453 77.4785C113.334 77.4936 113.201 77.48 113.094 77.4463C112.888 77.3822 112.78 77.2491 112.739 77.1403C112.344 76.0911 112.514 74.9202 112.957 73.8638C113.554 72.4382 114.639 71.244 115.35 70.859C116.566 70.2 118.001 70.1696 119.219 70.841C120.256 71.4125 120.904 72.3351 121.549 73.2755C121.686 73.4754 121.822 73.6739 121.963 73.8688C122.244 74.2595 122.272 74.6469 122.163 74.9791C122.042 75.3472 121.734 75.6578 121.349 75.8204C120.992 75.9706 120.579 75.9918 120.213 75.8374C119.904 75.707 119.62 75.4528 119.441 75.0214C119.138 74.295 118.635 73.4935 117.969 73.0674ZM141.007 74.6836C140.696 74.8455 140.453 74.8943 140.108 74.791C139.918 74.7338 139.729 74.624 139.582 74.4765C139.436 74.3303 139.33 74.1485 139.289 73.9468C139.189 73.4491 138.916 72.9831 138.528 72.6794C138.197 72.4198 137.778 72.2822 137.314 72.3598C136.813 72.4435 136.336 72.7649 136.007 73.1438C135.897 73.2706 135.811 73.4146 135.724 73.5576C135.562 73.8251 135.405 74.0738 135.182 74.2702C135.097 74.3449 134.969 74.3967 134.846 74.3967C134.795 74.3967 134.745 74.3885 134.696 74.3734C134.197 73.8728 134.101 73.493 134.117 73.1163C134.134 72.7213 134.29 72.3213 134.542 71.9481C135.132 71.0728 136.252 70.3551 137.008 70.1925C138.044 69.9699 139.072 70.2371 139.897 70.8157C140.745 71.411 141.374 72.3352 141.57 73.3768C141.617 73.6277 141.597 73.8985 141.502 74.1333C141.408 74.3627 141.246 74.5591 141.007 74.6836ZM120.252 63.7346C119.631 64.3403 118.895 64.4341 118.151 64.5175C117.738 64.5643 117.408 64.6021 117.083 64.6754C116.19 64.8769 115.308 65.1805 114.503 65.6178C113.661 66.0749 112.744 66.6261 112.084 67.3323C111.927 67.5003 111.779 67.6767 111.631 67.8534C111.496 68.0145 111.366 68.1697 111.229 68.3192C111.072 68.491 110.922 68.6711 110.773 68.8507C110.681 69.0023 110.663 69.0395 110.645 69.0783C110.617 69.1366 110.584 69.2019 110.547 69.2719C110.497 69.3677 110.437 69.4727 110.375 69.5678C110.272 69.7417 110.216 69.7896 110.168 69.8111C110.088 69.8465 110.013 69.864 109.94 69.8546C109.871 69.8457 109.806 69.8127 109.742 69.7586C109.423 69.489 109.329 69.0465 109.339 68.5767C109.353 67.8639 109.616 67.0746 109.859 66.5894C110.422 65.4621 111.203 64.2902 112.143 63.4488C113.215 62.4883 114.388 61.7613 115.735 61.2602C116.572 60.9488 117.542 60.6629 118.454 60.699C119.11 60.725 119.737 60.9202 120.255 61.4077C120.572 61.707 120.725 62.1327 120.725 62.5581C120.725 62.9919 120.566 63.4284 120.252 63.7346ZM142.271 69.2809C142.231 69.3457 142.177 69.3903 142.116 69.4172C142.052 69.4453 141.981 69.4534 141.912 69.4418C141.844 69.4304 141.78 69.3995 141.728 69.3523C141.679 69.3071 141.642 69.2472 141.625 69.1738C141.212 67.361 140.411 66.0124 138.701 65.1426C137.86 64.7148 136.893 64.443 135.977 64.2262C135.711 64.1633 135.43 64.1224 135.147 64.0811C134.26 63.9515 133.366 63.803 132.787 63.0855C132.439 62.6533 132.292 62.1006 132.375 61.595C132.453 61.1191 132.731 60.6826 133.236 60.4211C134.495 59.7703 136.058 60.4089 137.329 60.9529C137.423 60.9933 137.516 61.0329 137.606 61.0711C138.849 61.5958 139.982 62.2884 140.914 63.2789C141.653 64.0647 142.338 65.2263 142.614 66.4213C142.844 67.4155 142.79 68.4305 142.271 69.2809Z" fill="black"/>
<path fill-rule="evenodd" clip-rule="evenodd" d="M135.129 97.7725C133.389 96.2213 131.438 93.1027 128.937 95.5703C128.319 96.2675 128.068 97.8305 127.122 98.1371C125.866 98.5447 124.622 97.2154 124.194 96.1945C122.442 90.5226 129.682 88.9669 133.806 89.8832C135.821 90.7109 137.305 94.0426 137.395 95.7813C137.453 96.9499 136.464 98.6681 135.129 97.7725ZM148.261 89.0302C148.244 88.9548 148.22 88.8868 148.192 88.8249C147.422 88.5338 146.813 88.8307 146.436 89.3852C146.449 89.523 146.49 89.6627 146.516 89.7993C146.225 90.4115 145.963 91.1689 145.57 91.6978C145.492 91.7038 145.411 91.6955 145.334 91.6731C138.809 92.3548 141.994 85.5252 135.376 83.8288C130.26 82.9845 121.013 83.9517 118.6 89.2785C116.696 97.7868 107.018 91.8582 103.84 87.4333C100.45 83.4063 98.2572 78.4854 96.1433 73.7104C95.6966 72.6998 94.3025 73.4224 94.4541 74.392C92.5002 78.3129 92.5653 83.0225 92.0814 87.3178C91.2582 95.8873 90.4562 107.905 98.4159 113.137C108.787 124.863 134.683 129.001 146.645 118.227C150.785 109.322 150.275 98.4582 148.261 89.0302Z" fill="black"/>
<path fill-rule="evenodd" clip-rule="evenodd" d="M141.449 62.9393C145.836 62.9393 148.34 63.883 149.257 63.9565L149.285 63.9585C149.666 63.9829 150.009 64.0148 150.368 64.1537C151.688 64.6625 151.903 66.048 151.133 66.9211C151.079 68.7279 151.316 70.839 150.909 72.6516C150.406 80.2929 146.813 81.5825 144.771 82.0531C143.746 82.2895 142.531 82.3836 141.442 82.1341C139.584 82.0648 137.748 81.483 136.176 80.47C133.988 79.058 132.362 76.8878 131.835 74.3123C131.585 73.0846 131.468 71.8067 131.604 70.5588L131.624 70.3869C130.913 70.0465 130.089 69.9822 129.239 69.9521C128.833 69.9377 128.433 69.9247 128.044 69.942C127.664 69.9844 127.289 70.0409 126.912 70.1179C126.501 70.242 126.113 70.4468 125.754 70.7712L125.73 71.2447C125.662 72.4274 125.507 73.6137 125.268 74.7741C124.914 76.4862 124.345 78.1214 123.135 79.3359C122.726 79.9479 122.219 80.4942 121.603 80.9673C119.368 82.689 116.331 83.3211 113.543 83.0831C107.884 82.6 104.614 78.1064 103.86 76.1857L103.815 76.0693C103.27 74.6414 102.836 72.7886 101.116 72.4818L100.75 72.4161C99.9644 72.2686 99.2399 72.0634 98.7795 71.297C98.5777 70.9625 98.4739 70.5883 98.4484 70.2069C98.1798 70.2275 97.9116 70.2472 97.6443 70.2664C95.512 70.7175 82.7227 71.0999 81.7019 71.0999C81.7019 71.0999 79.7396 71.9261 78.9111 71.286C78.3369 70.8409 78.148 70.2476 78.4641 69.5755C78.941 68.5643 81.1415 67.956 82.1186 67.7634C82.1186 67.7634 97.8866 67.8945 99.0215 67.6792C99.7237 66.9549 100.98 67.054 102.029 66.9395C102.898 66.3198 104.114 65.9047 105.074 65.6269C105.269 65.5527 105.463 65.481 105.651 65.4134C107.412 64.7864 109.241 64.4543 111.099 64.2759C113.014 64.0938 114.935 64.1763 116.839 64.4372C117.642 64.5461 118.436 64.6869 119.226 64.8711C120.639 65.0575 122.044 65.3645 123.458 65.7286L123.741 65.8022C125.23 66.1927 126.76 66.5305 128.301 66.2657C129.556 66.0517 130.763 65.5686 131.92 65.0462L132.071 64.9779C134.614 63.816 138.587 62.9393 141.449 62.9393ZM119.073 67.1876C118.134 66.9811 117.733 68.4287 118.675 68.6358C119.342 68.7824 119.907 69.1188 120.289 69.6886L120.329 69.7505C120.841 70.5661 122.137 69.8132 121.621 68.9925C121.04 68.0688 120.138 67.4219 119.073 67.1876ZM146.564 66.2899C146.233 66.0568 145.732 66.2299 145.54 66.5593C145.329 66.9222 145.467 67.3261 145.777 67.5635L145.809 67.5866C146.093 67.787 146.37 68.1463 146.404 68.5144L146.408 68.5604C146.445 69.5237 147.941 69.5286 147.904 68.5604C147.867 67.6133 147.319 66.822 146.564 66.2899Z" fill="black"/>
</g>
<defs>
<clipPath id="clip0_12_548">
<rect width="212.308" height="230" fill="white"/>
</clipPath>
</defs>
</svg>
