<svg width="213" height="230" viewBox="0 0 213 230" fill="none" xmlns="http://www.w3.org/2000/svg">
<g clip-path="url(#clip0_12_483)">
<path fill-rule="evenodd" clip-rule="evenodd" d="M162.794 236.021C156.557 236.04 150.498 236.253 144.244 236.274C118.821 236.359 93.165 236.236 67.6505 235.205C60.4391 234.913 58.639 234.921 51.4588 234.468C47.2193 234.453 34.4845 234.103 35.122 228.326C35.4035 217.568 38.0663 206.855 38.9049 196.126C40.5145 175.956 41.8853 155.155 49.9679 136.29C51.8388 131.784 55.8568 128.838 59.8343 126.189C63.8232 123.331 64.8021 120.158 68.4835 116.929C69.262 116.246 73.6824 115.968 76.0608 114.237C79.5225 111.716 81.2393 107.589 82.5308 106.887C83.4812 106.37 83.4638 102.804 85.3687 101.542C87.9249 99.8481 96.0706 98.5887 99.0342 98.3532C101.879 98.1271 106.826 98.602 109.495 99.6439C113.946 101.381 115.721 104.696 117.681 108.966C143.575 116.972 167.244 130.528 174.594 157.872C180.933 180.806 181.165 205.392 178.717 228.912C178.227 230.632 178.57 233.328 177.084 234.468C182.248 234.765 163.494 235.83 162.794 236.021Z" fill="white"/>
<path fill-rule="evenodd" clip-rule="evenodd" d="M45.0143 213.376C45.5044 213.131 46.0152 212.851 46.5748 212.832C47.5359 212.798 47.5372 211.303 46.5748 211.336C45.7354 211.366 44.9983 211.716 44.2596 212.084C43.3978 212.515 44.1559 213.804 45.0143 213.376ZM46.575 171.275C45.9191 171.276 45.2581 171.358 44.7544 171.817C44.4549 172.09 44.4787 172.599 44.7544 172.875C45.0495 173.17 45.5134 173.147 45.8119 172.875C45.7145 172.963 45.8109 172.876 45.8462 172.856C45.8547 172.852 45.8593 172.848 45.8616 172.846C45.869 172.844 45.8765 172.843 45.8887 172.84C45.9668 172.82 46.044 172.801 46.123 172.787C46.1244 172.79 46.2899 172.776 46.3288 172.774C46.4111 172.771 46.4929 172.771 46.575 172.771C46.9806 172.771 47.3226 172.429 47.3226 172.023C47.3226 171.619 46.9791 171.275 46.575 171.275ZM53.6052 188.052C53.8194 188.992 55.2606 188.592 55.047 187.655C54.7364 186.292 54.793 184.897 55.047 183.529C55.222 182.587 53.7807 182.187 53.6052 183.132C53.3006 184.772 53.2324 186.418 53.6052 188.052ZM55.4936 134.298C56.6072 134.034 57.7086 134.003 58.8475 134.002C59.8112 134.002 59.8097 132.506 58.8475 132.506C57.5772 132.507 56.3371 132.561 55.0961 132.856C54.1589 133.079 54.5582 134.521 55.4936 134.298ZM59.2252 170.73C59.871 170.407 60.5171 170.084 61.1629 169.761C62.0248 169.33 61.2666 168.04 60.4083 168.469L58.4705 169.439C57.6089 169.87 58.367 171.159 59.2252 170.73ZM59.4937 200.185C60.3129 201.366 61.4647 202.1 62.8471 202.467C63.7797 202.714 64.1741 201.271 63.2446 201.025C62.2561 200.762 61.3778 200.285 60.7848 199.43C60.2396 198.643 58.944 199.392 59.4937 200.185ZM64.6605 147.524C64.8822 147.109 65.2158 146.934 65.63 146.925C66.5922 146.903 66.5924 145.407 65.63 145.429C64.6861 145.451 63.8206 145.925 63.3696 146.769C62.9156 147.618 64.2069 148.373 64.6605 147.524ZM74.144 157.69C74.412 157.983 74.9318 157.975 75.2013 157.69C75.3663 157.516 75.505 157.322 75.6142 157.108C75.6557 157.027 75.6947 156.945 75.7403 156.866C75.7607 156.831 75.7833 156.796 75.8065 156.763C75.8143 156.756 75.8306 156.739 75.8474 156.721C76.1347 156.417 76.1274 155.969 75.8474 155.664C75.5792 155.372 75.0594 155.379 74.7899 155.664C74.6251 155.838 74.4862 156.032 74.3773 156.246C74.3358 156.327 74.2967 156.409 74.2509 156.488C74.2305 156.523 74.2079 156.558 74.1847 156.591C74.1769 156.598 74.1608 156.615 74.144 156.633C73.8566 156.937 73.8638 157.385 74.144 157.69ZM74.9417 179.776C75.9155 180.222 76.9834 180.222 77.9572 179.776C78.326 179.607 78.4134 179.075 78.2252 178.753C78.0073 178.38 77.5694 178.317 77.2025 178.485C76.7608 178.687 76.1373 178.687 75.6962 178.485C75.3277 178.316 74.894 178.376 74.6735 178.753C74.4842 179.077 74.5744 179.608 74.9417 179.776ZM77.598 195.409C77.7653 195.805 78.1266 196.016 78.549 196.032C78.9674 196.048 79.279 195.677 79.2966 195.284C79.3078 195.031 79.1708 194.814 78.974 194.68C78.9738 194.666 78.9734 194.652 78.9734 194.638C78.9732 194.219 78.631 193.908 78.2258 193.89C77.8223 193.872 77.478 194.247 77.4782 194.638C77.4784 194.902 77.4946 195.164 77.598 195.409ZM81.4556 220.263C82.6488 220.282 83.8147 220.566 85.008 220.586C85.9723 220.601 85.9693 219.105 85.008 219.09C83.8149 219.071 82.649 218.786 81.4556 218.767C80.4914 218.751 80.4943 220.247 81.4556 220.263ZM86.417 124.414C87.1155 125.08 87.9783 125.407 88.8291 125.823C89.6911 126.245 90.4482 124.954 89.5838 124.532C88.8631 124.179 88.0652 123.919 87.4742 123.356C86.777 122.692 85.7186 123.749 86.417 124.414ZM88.292 141.654C88.7821 141.409 89.2929 141.129 89.8523 141.11C90.8135 141.076 90.8148 139.58 89.8523 139.614C89.0131 139.643 88.2759 139.993 87.5373 140.362C86.6751 140.793 87.4334 142.082 88.292 141.654ZM97.2803 210.846C97.5016 210.432 97.8352 210.257 98.2494 210.247C99.2118 210.225 99.2121 208.73 98.2494 208.752C97.3056 208.773 96.44 209.247 95.989 210.091C95.5352 210.941 96.8263 211.695 97.2803 210.846ZM100.393 178.367C100.691 178.094 100.67 177.586 100.393 177.31C100.07 176.986 99.7474 176.663 99.4242 176.34C99.1289 176.045 98.6656 176.066 98.3671 176.34C98.0695 176.613 98.0903 177.121 98.3671 177.398C98.6902 177.721 99.013 178.044 99.336 178.367C99.6317 178.663 100.095 178.641 100.393 178.367ZM104.063 228.986C105.142 228.96 106.153 228.651 107.169 228.313C108.079 228.01 107.686 226.566 106.771 226.87C105.888 227.164 105.002 227.468 104.063 227.49C103.101 227.512 103.101 229.008 104.063 228.986ZM108.908 197.001C109.882 196.974 110.691 196.478 111.374 195.813C112.066 195.141 111.007 194.084 110.317 194.755C109.926 195.136 109.474 195.49 108.908 195.506C107.946 195.532 107.945 197.028 108.908 197.001ZM105.899 155.869C105.887 156.268 105.719 156.694 105.472 156.956C104.812 157.656 105.867 158.715 106.53 158.014C107.076 157.435 107.371 156.661 107.394 155.869C107.422 154.905 105.927 154.909 105.899 155.869ZM117.304 123.293C117.617 122.681 118.027 121.962 118.651 121.623C119.498 121.164 118.742 119.873 117.896 120.332C117.048 120.792 116.441 121.699 116.013 122.539C115.576 123.395 116.866 124.151 117.304 123.293ZM119.242 138.848C119.589 138.838 119.933 138.779 120.268 138.688C120.411 138.649 120.552 138.605 120.695 138.566C120.757 138.549 121.017 138.517 120.857 138.525C121.262 138.503 121.605 138.2 121.605 137.777C121.605 137.389 121.261 137.008 120.857 137.029C120.302 137.059 119.798 137.337 119.242 137.353C118.281 137.38 118.28 138.875 119.242 138.848ZM124.087 162.755H125.702C126.666 162.755 126.664 161.26 125.702 161.26H124.087C123.123 161.26 123.125 162.755 124.087 162.755ZM125.971 228.883C126.461 229.128 127.038 229.361 127.434 229.736C128.134 230.397 129.192 229.341 128.492 228.678C127.986 228.2 127.34 227.9 126.725 227.592C126.363 227.411 125.917 227.492 125.702 227.86C125.508 228.193 125.61 228.703 125.971 228.883ZM129.578 209.985C129.641 209.968 129.707 209.955 129.771 209.947C130.025 209.912 130.291 209.924 130.546 209.924C131.51 209.924 131.508 208.428 130.546 208.429C129.788 208.429 128.999 208.44 128.402 208.971C128.1 209.24 128.129 209.755 128.402 210.028C128.7 210.325 129.158 210.297 129.46 210.028C129.428 210.057 129.537 209.997 129.578 209.985ZM130.546 184.568C130.329 184.12 130.326 183.828 130.325 183.331C130.324 182.367 128.829 182.368 128.83 183.331C128.83 184.053 128.938 184.669 129.255 185.323C129.432 185.688 129.95 185.784 130.278 185.592C130.645 185.377 130.722 184.932 130.546 184.568ZM134.869 149.483C135.737 149.778 136.511 150.196 137.274 150.7C138.081 151.232 138.829 149.936 138.029 149.408C137.158 148.833 136.256 148.377 135.267 148.041C134.352 147.729 133.963 149.175 134.869 149.483ZM139.912 124.31C140.557 124.328 141.222 124.575 141.796 124.854C142.659 125.273 143.416 123.983 142.55 123.563C141.73 123.164 140.833 122.84 139.912 122.814C138.948 122.787 138.952 124.283 139.912 124.31ZM142.173 191.509C142.427 191.52 142.643 191.383 142.778 191.186C142.792 191.186 142.805 191.186 142.819 191.186C143.238 191.186 143.549 190.843 143.567 190.438C143.585 190.034 143.21 189.69 142.819 189.69C142.555 189.69 142.293 189.706 142.048 189.81C141.652 189.977 141.442 190.339 141.426 190.761C141.41 191.18 141.781 191.491 142.173 191.509ZM145.85 139.791C146.768 140.091 147.158 138.646 146.247 138.349C145.178 137.999 144.086 137.729 143.018 137.379C142.099 137.079 141.709 138.524 142.62 138.822C143.689 139.171 144.781 139.441 145.85 139.791ZM149.203 168.022C149.488 168.94 150.931 168.546 150.645 167.624C150.369 166.735 150.349 165.839 150.349 164.915C150.348 163.951 148.853 163.953 148.854 164.915C148.854 165.967 148.889 167.009 149.203 168.022ZM159.2 201.835C159.255 202.208 159.55 202.476 159.936 202.494C160.33 202.511 160.698 202.137 160.684 201.746C160.656 200.993 160.043 200.379 159.29 200.352C158.872 200.336 158.56 200.707 158.543 201.1C158.526 201.482 158.844 201.78 159.2 201.835ZM164.259 158.852C165.049 159.116 165.894 159.367 166.513 159.952C167.213 160.613 168.272 159.557 167.57 158.894C166.754 158.123 165.703 157.759 164.657 157.41C163.74 157.104 163.351 158.549 164.259 158.852ZM167.688 187.908C167.905 188.279 168.345 188.346 168.711 188.176C169.201 187.948 169.742 187.956 170.271 187.955C171.235 187.954 171.233 186.459 170.271 186.46C169.456 186.46 168.703 186.537 167.956 186.885C167.588 187.056 167.499 187.584 167.688 187.908ZM169.625 223.17C170.044 223.185 170.355 222.815 170.373 222.422C170.39 222.04 170.071 221.742 169.715 221.686C169.661 221.314 169.366 221.046 168.979 221.028C168.586 221.011 168.217 221.385 168.232 221.776C168.259 222.529 168.872 223.142 169.625 223.17ZM33.4059 228.826C33.6599 227.911 34.2412 227.173 34.6804 226.35C34.8277 226.073 34.8789 225.9 34.9587 225.697C35.0671 225.915 35.2776 226.078 35.594 226.078C36.201 226.078 36.9111 226.039 37.4776 226.299C37.846 226.468 38.28 226.408 38.5003 226.031C38.6897 225.707 38.5992 225.176 38.2321 225.007C37.3972 224.625 36.4997 224.583 35.594 224.582C35.3703 224.582 35.2009 224.664 35.0813 224.788C34.7352 220.047 34.7438 215.302 35.0712 210.557C35.4205 205.487 36.2244 200.517 37.0655 195.512C37.4727 193.086 38.0017 190.634 37.8989 188.163C37.7961 185.708 36.7438 183.42 37.4896 180.957C37.7886 179.97 38.3007 179.065 38.6334 178.089C38.9904 177.038 38.9586 176.001 38.796 174.913C38.4615 172.697 37.9065 170.508 38.7943 168.345C39.1866 167.385 39.8223 166.529 40.1286 165.538C40.5099 164.306 40.4576 162.943 40.5211 161.666C40.6501 159.09 40.6837 156.497 40.897 153.926C40.9921 152.774 41.1996 151.682 41.6724 150.626C42.1268 149.609 42.8013 148.684 43.1022 147.605C43.4013 146.543 43.4274 145.423 43.5882 144.337C43.7564 143.189 44.0199 142.058 44.375 140.954C45.7469 136.684 48.2608 132.848 51.2306 129.522C54.3874 125.986 58.161 123.324 62.1663 120.843C64.2725 119.538 66.3785 118.233 68.4832 116.929C68.5281 117.174 68.6842 117.398 68.9838 117.499C69.7742 117.763 70.618 118.014 71.2376 118.599C71.9374 119.259 72.9962 118.203 72.2949 117.541C71.5634 116.85 70.644 116.486 69.7084 116.167C70.6674 115.562 71.6367 114.936 72.7188 114.587C73.6666 114.28 75.0645 114.548 75.8328 113.852C76.4363 113.304 76.6272 112.289 76.8587 111.545C77.1484 110.621 77.3989 109.647 77.7671 108.75C78.0175 108.137 78.382 107.548 78.8418 107.073C79.0436 106.295 79.4139 105.585 80.068 105.153C81.7799 104.02 83.8825 105.145 84.6357 106.761C85.2581 106.759 85.9142 106.895 86.5197 106.933C87.7645 107.011 89.0111 107.047 90.2578 107.043C92.6969 107.035 95.1378 106.877 97.5563 106.553C101.881 105.974 106.077 104.805 110.329 103.894C110.354 103.838 110.382 103.782 110.415 103.726C111.331 102.189 113.613 102.449 115.051 103.031C115.667 103.279 116.295 103.593 116.648 104.177C117.022 104.429 117.346 104.736 117.561 105.059C118.005 105.727 118.349 107.073 119.252 107.185C119.846 107.258 120.45 107.144 121.054 107.23C121.809 107.335 122.485 107.6 123.183 107.903C128.491 110.208 133.978 112.772 139.739 113.665C141.09 113.875 142.465 114.091 143.639 114.849C144.592 115.464 145.329 116.309 146.115 117.111C146.882 117.892 147.514 118.238 148.607 118.379C149.934 118.549 151.083 118.915 152.053 119.88C152.859 120.682 153.384 121.707 154.016 122.638C154.659 123.587 155.603 124.122 156.582 124.674C158.898 125.979 161.055 127.555 162.933 129.445C166.89 133.431 169.286 138.554 171.701 143.546C174.312 148.945 176.753 154.41 178.446 160.176C180.106 165.837 181.092 171.661 181.548 177.54C182.029 183.707 182.096 189.9 182.496 196.071C182.696 199.154 182.847 202.241 183.001 205.326C183.15 208.374 183.369 211.427 183.334 214.478C183.266 220.377 182.087 226.294 180.025 231.817C179.511 233.191 178.941 234.547 178.334 235.882C177.801 237.054 175.979 236.923 175.407 235.882C175.276 235.642 175.173 235.395 175.087 235.145C173.592 235.158 172.082 235.042 170.596 235.18C167.972 235.425 165.342 235.562 162.711 235.725C157.503 236.048 152.287 236.263 147.078 236.56C146.573 236.589 146.067 236.618 145.562 236.648C149.274 225.155 148.793 212.729 149.38 200.776C149.427 199.813 147.932 199.818 147.885 200.776C147.295 212.781 147.797 225.238 143.954 236.75C142.463 236.851 140.974 236.974 139.49 237.155C138.29 237.299 137.084 237.469 135.873 237.409C134.499 237.344 133.158 237.03 131.817 236.757C129.382 236.261 127.036 236.485 124.592 236.79C121.977 237.117 119.353 237.299 116.721 237.413C106.184 237.875 95.5752 238.295 85.0413 237.59C82.492 237.42 79.9482 237.181 77.4157 236.856C74.8065 236.521 72.2254 235.958 69.6183 235.639C67.0484 235.324 64.6858 236.186 62.1458 236.345C59.5555 236.508 56.8957 235.968 54.3295 235.657C53.4923 235.556 52.6543 235.457 51.816 235.359C52.8952 227.96 53.5088 220.505 54.1048 213.053C54.1816 212.092 52.6859 212.1 52.6096 213.053C52.0184 220.447 51.4185 227.846 50.341 235.187C45.8974 234.67 41.4495 234.147 37.0522 233.341C35.8 233.113 34.5552 232.741 33.8057 231.623C33.2508 230.794 33.1385 229.779 33.4059 228.826Z" fill="black"/>
<path fill-rule="evenodd" clip-rule="evenodd" d="M66.9851 71.914C67.3874 68.3776 66.8667 60.9858 66.8318 60.5367C66.6113 57.6977 67.9411 46.4868 70.4549 47.5197C74.6718 44.1804 80.2884 43.443 85.5403 43.0907C96.4494 42.359 108.055 44.0388 116.478 51.3828C120.644 55.1966 124.7 60.7437 124.374 66.5194C128.159 71.994 133.495 79.5038 128.779 85.9041C127.176 87.949 124.628 88.7105 122.614 90.2591C118.564 93.5272 116.023 98.2174 111.934 101.466C101.101 111.204 82.7064 113.238 72.0631 102.162C63.8328 94.1406 65.1636 82.1402 66.6113 71.914C67.5845 65.0389 66.2001 78.8132 66.9851 71.914Z" fill="white"/>
<path fill-rule="evenodd" clip-rule="evenodd" d="M100.114 28.0938C97.1961 27.5049 94.2003 27.1385 91.2208 27.2488L90.9911 27.2577C88.7494 27.3473 85.9104 27.5456 83.9548 28.8496C83.8423 28.7366 83.6614 28.6787 83.4973 28.757C81.1733 29.8666 78.6173 30.6689 76.1703 31.4661C73.7346 32.2594 71.2077 32.7831 68.6548 32.9942C67.6943 33.0736 66.8723 34.1111 67.4805 35.0416C67.6251 35.2633 67.7661 35.4873 67.9064 35.7119C67.6717 35.6874 67.4369 35.6621 67.2022 35.6384C66.4297 35.5606 65.658 36.3853 65.7038 37.1377C65.7324 37.6109 65.7834 38.0785 65.8589 38.5404C65.5647 38.5343 65.2722 38.5784 64.9896 38.6979C63.5587 39.3023 63.6583 41.0072 63.7654 42.3044C63.9138 44.1045 64.5868 46.0111 65.8365 47.3584C64.9035 48.3278 64.2429 49.4855 63.849 50.8604C63.5632 51.8644 63.4041 52.9338 63.4826 53.979L63.5077 54.2919C63.6047 55.4261 63.7977 56.6817 64.6134 57.4976C65.0321 57.9183 65.5479 58.0716 66.0396 58.023C65.7423 60.6368 65.5516 63.2655 65.3722 65.8848L65.2881 67.1368C64.8878 73.1906 64.587 79.2839 64.6657 85.3478C64.7388 91.0146 65.8582 96.5151 69.3327 101.116C72.4971 105.306 77.0405 108.395 82.1804 109.569C84.9503 110.203 87.7781 110.248 90.5816 109.844C91.9406 109.647 93.3085 109.346 94.5984 108.872C96.0261 108.344 97.0522 107.568 98.0129 106.405C98.4672 105.854 98.2486 104.68 97.3438 104.79C95.9754 104.956 94.7262 105.156 93.4144 105.561L93.2265 105.62C91.9199 106.039 90.5667 106.351 89.2006 106.484C86.4025 106.755 83.5618 106.482 80.8814 105.633C76.5172 104.25 72.7586 101.167 70.3494 97.2929C67.4898 92.701 67.1665 87.4885 67.2078 82.2086C67.252 76.4149 67.4404 70.6179 67.7479 64.8301L67.8003 63.8656C67.9629 60.8873 68.1199 57.9071 68.258 54.9269C68.301 53.9921 68.3664 53.0498 68.4843 52.1168C69.5626 51.4849 70.5289 50.6136 71.1587 49.5386C72.424 50.0621 73.7548 50.4398 74.9792 50.7408C77.8153 51.4385 80.7597 51.6079 83.6464 51.171C84.4251 51.4927 85.2192 51.7756 86.0255 52.019C86.2434 52.1157 86.4614 52.2107 86.6791 52.3038C88.6231 53.1358 90.5949 53.8406 92.6469 54.3566L93.151 54.4824C94.2309 54.7487 95.4039 55.0109 96.5532 55.0933C96.7419 55.1662 96.9457 55.2279 97.1683 55.2821C98.2147 55.5364 99.3008 55.6168 100.373 55.527C101.418 55.4392 102.174 54.3828 101.598 53.3938C101.177 52.6721 100.753 51.9523 100.325 51.2344C101.814 51.8551 103.353 52.3711 104.904 52.8086C106.47 53.2498 108.059 53.6219 109.65 53.964C110.5 54.1454 111.354 54.3062 112.203 54.4875C112.81 54.6165 113.743 54.6838 114.238 55.0839C114.786 55.5233 114.941 56.5479 115.148 57.1798C115.421 58.0006 115.677 58.8251 115.911 59.6589C116.376 61.3229 116.757 63.0112 117.053 64.7163C117.348 66.4233 117.546 68.1471 117.657 69.8765C117.767 71.604 117.718 73.3428 117.896 75.0629C117.991 75.9753 118.97 76.4445 119.694 75.807C119.778 75.7322 119.864 75.6566 119.949 75.5801L120.075 75.4649C120.694 74.904 121.294 74.3094 121.789 73.6401C121.878 73.5167 121.964 73.3877 122.045 73.2568C122.058 73.2568 122.069 73.2531 122.082 73.2437L122.219 73.1404C123.731 72.0149 126.256 70.5476 127.73 72.4173C128.2 73.013 128.441 73.7715 128.64 74.5032L128.99 75.8128C129.217 76.6676 129.43 77.5273 129.555 78.4021C129.837 80.3614 129.695 82.6199 128.347 84.1904C127.809 84.8186 127.067 85.2674 126.239 85.3851C125.777 85.4487 125.321 85.3702 124.863 85.3122C124.398 85.2543 123.95 85.3478 123.484 85.3029C122.744 85.23 122.421 86.1162 122.697 86.6733C122.847 86.9725 123.023 87.2305 123.222 87.4492C123.062 87.5876 122.908 87.7371 122.761 87.8942C122.323 88.0344 121.931 88.3354 121.637 88.7337C121.4 89.0552 121.277 89.4049 121.256 89.7732C121.23 89.8648 121.208 89.9583 121.187 90.0536L120.786 90.7046C120.698 90.8474 120.61 90.9884 120.522 91.1268C119.501 92.7347 118.368 94.0958 116.961 95.3784C115.606 96.6123 114.135 97.7173 112.862 99.041L112.712 99.1981C111.526 100.449 110.275 101.963 110.739 103.782C110.859 104.25 111.511 104.586 111.937 104.27C113.307 103.253 113.997 101.642 115.159 100.408C116.356 99.1363 117.681 97.994 118.881 96.7264C120.015 95.5298 120.911 94.1743 121.585 92.6823C121.854 92.9796 122.247 93.1909 122.791 93.2731C123.725 93.4134 124.596 92.8656 125.003 92.056C125.265 92.1719 125.532 92.2766 125.802 92.3589C127.218 92.7926 128.11 91.2165 127.575 90.0518C127.29 89.4273 126.933 88.8851 126.489 88.4289C127.875 88.2382 129.284 87.5221 130.194 86.6285C132.478 84.383 132.792 81.0083 132.278 78.0076C132.005 76.4165 131.534 74.8067 130.923 73.3129C130.816 73.053 130.702 72.7913 130.577 72.5333C130.646 72.5314 130.717 72.5015 130.762 72.4435C131.175 71.8789 131.678 71.4171 131.984 70.7851C132.267 70.2056 132.581 69.6185 132.803 69.0146C133.261 67.7788 133.485 66.384 133.635 65.0771C133.943 62.4017 133.824 59.7431 133.414 57.0844C132.717 52.5562 131.034 48.2227 128.553 44.4203C128.688 44.3493 128.818 44.2636 128.938 44.1623L128.998 44.1103L129.095 44.0228C129.802 43.3821 129.741 42.1812 129.095 41.5322L128.89 41.3274C128.632 41.0704 128.409 40.8668 127.991 40.587C127.929 40.5456 127.866 40.5067 127.803 40.4705C128.021 40.0663 128.097 39.5936 127.945 39.0722C127.414 37.2556 124.801 37.3199 123.145 38.1121C121.313 36.4764 119.281 35.0564 117.079 33.9066C111.834 31.1694 105.904 29.2605 100.114 28.0938ZM127.224 75.9379C126.244 75.6182 124.943 76.2894 124.063 76.6932C122.947 77.2055 121.998 77.9627 121.078 78.7629C120.62 79.163 120.538 79.8174 120.652 80.3764C120.664 80.4325 120.675 80.4904 120.688 80.5484C120.809 81.1448 121.475 81.6141 122.063 81.5973C123.295 81.5636 123.882 80.4998 124.579 79.5986C124.661 79.7444 124.764 79.8791 124.891 79.98L124.977 80.0473C125.267 80.2677 125.586 80.4439 125.968 80.4269C126.239 80.4138 126.498 80.3446 126.738 80.2193C127.336 79.9034 127.599 79.1293 127.437 78.4993C127.336 78.1029 127.104 77.7925 126.801 77.5775L126.914 77.5003C127.156 77.3322 127.376 77.155 127.548 76.8934L127.586 76.8316H127.571C127.758 76.51 127.637 76.0725 127.224 75.9379Z" fill="black"/>
<path fill-rule="evenodd" clip-rule="evenodd" d="M81.0944 94.7531C82.4712 95.152 83.9491 95.1877 85.3525 94.7757C86.6255 94.402 87.9325 93.5796 88.8694 92.4914C89.7017 91.5247 90.2407 90.3499 90.2195 89.0959C90.2171 88.9527 90.1659 88.8332 90.0872 88.7404C90.0024 88.6405 89.884 88.5719 89.7571 88.5422C89.6267 88.5115 89.4888 88.5224 89.3713 88.5757C89.265 88.6241 89.1739 88.7061 89.117 88.826C88.973 89.0152 88.8296 89.2016 88.6856 89.3828C87.5279 90.8128 86.4068 91.8814 84.666 92.2647C83.7215 92.4727 82.7782 92.3805 81.9127 92.0631C80.9862 91.7234 80.1487 91.1261 79.4923 90.3618C79.1957 90.0164 78.8456 89.8754 78.5032 89.873C78.1152 89.8703 77.7316 90.0507 77.4427 90.3389C77.1587 90.6223 76.9685 91.0073 76.9513 91.4101C76.9362 91.7637 77.0515 92.1329 77.3582 92.4624C78.3684 93.5476 79.6777 94.3426 81.0944 94.7531ZM81.1365 76.8435C79.7251 77.7017 77.5746 79.7027 79.0929 81.8303C80.8801 83.7062 83.4533 81.5553 84.7213 80.5826C85.897 79.8287 87.2181 81.7676 86.1272 82.6479C76.9645 89.4338 73.2461 77.0679 80.4226 75.8345C81.2128 75.6986 81.5062 76.578 81.1365 76.8435ZM94.3391 73.0674C94.7927 72.7772 95.3263 72.6775 95.9177 72.9467C96.3798 73.1569 97.1904 73.8578 97.7545 74.7791C98.1404 75.4094 98.4141 76.1488 98.3571 76.919C98.3439 77.0978 98.4099 77.2297 98.5141 77.3272C98.5964 77.4043 98.7153 77.4609 98.855 77.4785C98.9735 77.4936 99.1062 77.48 99.2141 77.4463C99.4194 77.3822 99.528 77.2491 99.569 77.1403C99.9639 76.0911 99.7938 74.9202 99.3511 73.8638C98.7537 72.4382 97.6688 71.244 96.9581 70.859C95.7418 70.2 94.3069 70.1696 93.0889 70.841C92.052 71.4125 91.4037 72.3351 90.7589 73.2755C90.6218 73.4754 90.4858 73.6739 90.3452 73.8688C90.0634 74.2595 90.0354 74.6469 90.1445 74.9791C90.2654 75.3472 90.5736 75.6578 90.9591 75.8204C91.3153 75.9706 91.7288 75.9918 92.0947 75.8374C92.4038 75.707 92.6874 75.4528 92.8669 75.0214C93.1692 74.295 93.6729 73.4935 94.3391 73.0674ZM71.3009 74.6836C71.6116 74.8455 71.8547 74.8943 72.1993 74.791C72.3899 74.7338 72.5782 74.624 72.7257 74.4765C72.8718 74.3303 72.9773 74.1485 73.0183 73.9468C73.1191 73.4491 73.3913 72.9831 73.7793 72.6794C74.1109 72.4198 74.5295 72.2822 74.9937 72.3598C75.4947 72.4435 75.972 72.7649 76.3008 73.1438C76.4106 73.2706 76.4967 73.4146 76.5833 73.5576C76.7453 73.8251 76.9027 74.0738 77.1261 74.2702C77.2108 74.3449 77.3384 74.3967 77.462 74.3967C77.5122 74.3967 77.5632 74.3885 77.6117 74.3734C78.1104 73.8728 78.2063 73.493 78.1902 73.1163C78.1733 72.7213 78.0177 72.3213 77.7661 71.9481C77.1759 71.0728 76.0554 70.3551 75.2992 70.1925C74.2637 69.9699 73.2353 70.2371 72.4108 70.8157C71.5624 71.411 70.9337 72.3352 70.7377 73.3768C70.6906 73.6277 70.7106 73.8985 70.8061 74.1333C70.8994 74.3627 71.0621 74.5591 71.3009 74.6836ZM92.0555 63.7346C92.677 64.3403 93.4125 64.4341 94.1566 64.5175C94.57 64.5643 94.9001 64.6021 95.2249 64.6754C96.1176 64.8769 97 65.1805 97.8051 65.6178C98.6466 66.0749 99.5637 66.6261 100.224 67.3323C100.38 67.5003 100.528 67.6767 100.676 67.8534C100.811 68.0145 100.942 68.1697 101.079 68.3192C101.236 68.491 101.386 68.6711 101.534 68.8507C101.626 69.0023 101.644 69.0395 101.663 69.0783C101.691 69.1366 101.723 69.2019 101.76 69.2719C101.811 69.3677 101.87 69.4727 101.933 69.5678C102.036 69.7417 102.092 69.7896 102.14 69.8111C102.219 69.8465 102.295 69.864 102.368 69.8546C102.437 69.8457 102.501 69.8127 102.565 69.7586C102.884 69.489 102.979 69.0465 102.969 68.5767C102.954 67.8639 102.691 67.0746 102.449 66.5894C101.886 65.4621 101.104 64.2902 100.165 63.4488C99.0928 62.4883 97.9199 61.7613 96.5727 61.2602C95.7355 60.9488 94.7662 60.6629 93.8541 60.699C93.1975 60.725 92.5708 60.9202 92.0532 61.4077C91.7354 61.707 91.5828 62.1327 91.5828 62.5581C91.5828 62.9919 91.7412 63.4284 92.0555 63.7346ZM70.0368 69.2809C70.0763 69.3457 70.131 69.3903 70.1919 69.4172C70.2557 69.4453 70.3269 69.4534 70.3953 69.4418C70.4633 69.4304 70.528 69.3995 70.5793 69.3523C70.6285 69.3071 70.666 69.2472 70.6827 69.1738C71.0953 67.361 71.8964 66.0124 73.6064 65.1426C74.4475 64.7148 75.4148 64.443 76.3304 64.2262C76.5965 64.1633 76.8777 64.1224 77.1608 64.0811C78.0482 63.9515 78.942 63.803 79.5205 63.0855C79.8691 62.6533 80.0154 62.1006 79.9326 61.595C79.8548 61.1191 79.5767 60.6826 79.0713 60.4211C77.813 59.7703 76.2493 60.4089 74.9786 60.9529C74.8843 60.9933 74.7918 61.0329 74.7012 61.0711C73.4586 61.5958 72.3252 62.2884 71.3936 63.2789C70.6544 64.0647 69.9695 65.2263 69.6936 66.4213C69.4642 67.4155 69.5181 68.4305 70.0368 69.2809Z" fill="black"/>
<path fill-rule="evenodd" clip-rule="evenodd" d="M77.1784 97.7725C78.919 96.2213 80.8701 93.1027 83.3706 95.5703C83.9891 96.2675 84.2395 97.8305 85.1853 98.1371C86.4413 98.5447 87.686 97.2154 88.114 96.1945C89.8653 90.5226 82.6258 88.9669 78.5016 89.8832C76.4868 90.7109 75.0028 94.0426 74.9131 95.7813C74.8552 96.9499 75.8439 98.6681 77.1784 97.7725ZM64.0466 89.0302C64.0636 88.9548 64.0873 88.8868 64.1159 88.8249C64.8857 88.5338 65.4949 88.8307 65.8713 89.3852C65.859 89.523 65.8178 89.6627 65.7919 89.7993C66.0823 90.4115 66.3443 91.1689 66.738 91.6978C66.8157 91.7038 66.8963 91.6955 66.9736 91.6731C73.499 92.3548 70.3132 85.5252 76.9316 83.8288C82.0477 82.9845 91.2945 83.9517 93.708 89.2785C95.6114 97.7868 105.29 91.8582 108.468 87.4333C111.858 83.4063 114.05 78.4854 116.164 73.7104C116.611 72.6998 118.005 73.4224 117.854 74.392C119.807 78.3129 119.742 83.0225 120.226 87.3178C121.049 95.8873 121.851 107.905 113.892 113.137C103.521 124.863 77.6243 129.001 65.6629 118.227C61.5223 109.322 62.0327 98.4582 64.0466 89.0302Z" fill="black"/>
<path fill-rule="evenodd" clip-rule="evenodd" d="M70.8585 62.9393C66.4715 62.9393 63.968 63.883 63.0506 63.9565L63.023 63.9585C62.6415 63.9829 62.2992 64.0148 61.94 64.1537C60.6195 64.6625 60.4043 66.048 61.175 66.9211C61.229 68.7279 60.9915 70.839 61.3991 72.6516C61.9019 80.2929 65.4943 81.5825 67.5363 82.0531C68.5616 82.2895 69.7766 82.3836 70.8656 82.1341C72.7234 82.0648 74.56 81.483 76.1314 80.47C78.3199 79.058 79.9454 76.8878 80.4729 74.3123C80.7229 73.0846 80.8397 71.8067 80.7036 70.5588L80.6835 70.3869C81.3948 70.0465 82.2192 69.9822 83.0689 69.9521C83.4748 69.9377 83.8749 69.9247 84.2636 69.942C84.6435 69.9844 85.0189 70.0409 85.3954 70.1179C85.8066 70.242 86.1949 70.4468 86.5535 70.7712L86.5781 71.2447C86.6455 72.4274 86.8007 73.6137 87.0402 74.7741C87.3937 76.4862 87.9623 78.1214 89.1725 79.3359C89.5822 79.9479 90.0891 80.4942 90.7045 80.9673C92.9399 82.689 95.977 83.3211 98.7644 83.0831C104.423 82.6 107.694 78.1064 108.448 76.1857L108.493 76.0693C109.038 74.6414 109.471 72.7886 111.192 72.4818L111.558 72.4161C112.343 72.2686 113.068 72.0634 113.528 71.297C113.73 70.9625 113.834 70.5883 113.859 70.2069C114.128 70.2275 114.396 70.2472 114.663 70.2664C116.796 70.7175 129.585 71.0999 130.606 71.0999C130.606 71.0999 132.568 71.9261 133.397 71.286C133.971 70.8409 134.16 70.2476 133.844 69.5755C133.367 68.5643 131.166 67.956 130.189 67.7634C130.189 67.7634 114.421 67.8945 113.286 67.6792C112.584 66.9549 111.328 67.054 110.278 66.9395C109.41 66.3198 108.194 65.9047 107.234 65.6269C107.038 65.5527 106.845 65.481 106.656 65.4134C104.896 64.7864 103.067 64.4543 101.209 64.2759C99.2938 64.0938 97.3728 64.1763 95.4686 64.4372C94.6662 64.5461 93.8712 64.6869 93.0819 64.8711C91.6685 65.0575 90.2633 65.3645 88.8494 65.7286L88.5665 65.8022C87.0776 66.1927 85.5475 66.5305 84.0062 66.2657C82.7514 66.0517 81.5447 65.5686 80.3878 65.0462L80.2372 64.9779C77.6933 63.816 73.7206 62.9393 70.8585 62.9393ZM93.2349 67.1876C94.1736 66.9811 94.5744 68.4287 93.6328 68.6358C92.966 68.7824 92.4009 69.1188 92.0191 69.6886L91.9789 69.7505C91.4666 70.5661 90.1711 69.8132 90.6869 68.9925C91.2674 68.0688 92.1693 67.4219 93.2349 67.1876ZM65.744 66.2899C66.0748 66.0568 66.5756 66.2299 66.7677 66.5593C66.9791 66.9222 66.8405 67.3261 66.5306 67.5635L66.4991 67.5866C66.2148 67.787 65.938 68.1463 65.9032 68.5144L65.9001 68.5604C65.8629 69.5237 64.3663 69.5286 64.4037 68.5604C64.4402 67.6133 64.9885 66.822 65.744 66.2899Z" fill="black"/>
</g>
<defs>
<clipPath id="clip0_12_483">
<rect width="212.308" height="230" fill="white" transform="matrix(-1 0 0 1 212.308 0)"/>
</clipPath>
</defs>
</svg>
